<?xml version="1.0" encoding="UTF-8"?>
<svg xmlns="http://www.w3.org/2000/svg" version="1.1" viewBox="0 0 1024 1024">
<g>
<path fill="none" stroke="#828281" stroke-width="1.0" d="M 490.5 33.991304799647516 C 494.6615342591568 33.768272151564375 517.783594506289 33.513059173504615 522.5 33.63810031827241 C 522.5 33.63810031827241 550.5 35.10769874623191 550.5 35.10769874623191 C 550.5 35.10769874623191 579.5 38.62557386582341 579.5 38.62557386582341 C 579.5 38.62557386582341 609.5 43.5783841531169 609.5 43.5783841531169 C 609.5 43.5783841531169 626.0 47.14422143478035 626.0 47.14422143478035 C 626.0 47.14422143478035 643.5 52.08040751025895 643.5 52.08040751025895 C 643.5 52.08040751025895 671.4343446685383 61.003124957254556 671.4343446685383 61.003124957254556 C 671.4343446685383 61.003124957254556 696.9343446685383 70.44286015821564 696.9343446685383 70.44286015821564 C 696.9343446685383 70.44286015821564 725.0 83.31971573169959 725.0 83.31971573169959 C 727.6450644256169 84.60985100157923 753.9595217288099 98.74834973350936 756.0 99.97571040564824 C 756.0 99.97571040564824 784.1342310335356 117.9842775296699 784.1342310335356 117.9842775296699 C 784.1342310335356 117.9842775296699 812.1144821556165 138.18625434862685 812.1144821556165 138.18625434862685 C 812.1144821556165 138.18625434862685 832.480251122081 154.94117932447165 832.480251122081 154.94117932447165 C 832.480251122081 154.94117932447165 850.3429120995413 171.94117932447165 850.3429120995413 171.94117932447165 C 850.3429120995413 171.94117932447165 873.3691662352516 196.5 873.3691662352516 196.5 C 873.3691662352516 196.5 889.5914766563571 215.5 889.5914766563571 215.5 C 889.5914766563571 215.5 901.2251547232165 231.00609274342384 901.2251547232165 231.00609274342384 C 901.2251547232165 231.00609274342384 919.7424174887954 258.50609274342384 919.7424174887954 258.50609274342384 C 922.5445348915536 262.86578071195987 936.6765711490949 287.02356524064476 938.7509931698087 291.0 C 938.7509931698087 291.0 951.9467798291811 318.2584585698849 951.9467798291811 318.2584585698849 C 951.9467798291811 318.2584585698849 960.1237907436252 338.2584585698849 960.1237907436252 338.2584585698849 C 960.1237907436252 338.2584585698849 965.6708687802477 354.0 965.6708687802477 354.0 C 965.6708687802477 354.0 973.6421115887179 380.5 973.6421115887179 380.5 C 975.36947452043 386.47658634028477 981.48017666039 411.3062895483483 982.5570814800896 416.72432438067256 C 982.8465002728459 418.18042437354 987.794861329328 448.58964379063366 987.9623937012583 449.9416509813867 C 987.9623937012583 449.9416509813867 991.0960933306076 484.21732660071416 991.0960933306076 484.21732660071416 C 991.7773571658378 495.0297498473897 991.9957799442909 511.5640793482748 991.6306607466702 524.6834073831938 C 991.6306607466702 524.6834073831938 989.9682576609771 559.1834073831938 989.9682576609771 559.1834073831938 C 989.9682576609771 559.1834073831938 985.9919425228737 590.5 985.9919425228737 590.5 C 985.9919425228737 590.5 980.5105968021015 621.0 980.5105968021015 621.0 C 980.5105968021015 621.0 973.3905622412251 647.8061767957865 973.3905622412251 647.8061767957865 C 973.3905622412251 647.8061767957865 961.5079538015859 682.8061767957865 961.5079538015859 682.8061767957865 C 961.5079538015859 682.8061767957865 950.5287742000266 710.5 950.5287742000266 710.5 C 950.5287742000266 710.5 941.2902974644569 729.5 941.2902974644569 729.5 C 941.2902974644569 729.5 928.9406936874706 752.5996151889789 928.9406936874706 752.5996151889789 C 928.9406936874706 752.5996151889789 914.4229672195902 776.0996151889789 914.4229672195902 776.0996151889789 C 914.4229672195902 776.0996151889789 896.6921835221267 801.0 896.6921835221267 801.0 C 896.6921835221267 801.0 883.719603629336 818.0 883.719603629336 818.0 C 883.719603629336 818.0 869.1188791605962 834.3212030883155 869.1188791605962 834.3212030883155 C 866.155452467884 837.5912857649176 845.2083698224161 858.4798046432935 841.0 862.3614676027616 C 841.0 862.3614676027616 814.5 885.6714223526355 814.5 885.6714223526355 C 814.5 885.6714223526355 796.5 899.3626367420146 796.5 899.3626367420146 C 796.5 899.3626367420146 776.0 913.4019029657308 776.0 913.4019029657308 C 776.0 913.4019029657308 752.5 927.9489850232212 752.5 927.9489850232212 C 752.5 927.9489850232212 723.0 943.2785609613154 723.0 943.2785609613154 C 719.0246800930515 945.2600836738125 696.2562626498897 955.5442025963412 694.0 956.3773830247217 C 694.0 956.3773830247217 666.1617750354617 966.1367900380411 666.1617750354617 966.1367900380411 C 665.1700586041413 966.473231620201 635.9432048999018 975.2436155438635 635.1617750354617 975.4392590750726 C 635.1617750354617 975.4392590750726 609.5 981.3554264089055 609.5 981.3554264089055 C 609.5 981.3554264089055 580.0 986.3821181960677 580.0 986.3821181960677 C 580.0 986.3821181960677 548.5 989.9524767574153 548.5 989.9524767574153 C 544.6717509233275 990.2366939151052 517.6472020389516 990.9948207771229 511.3044682539775 990.9959329085 C 503.7871187493473 990.9972509963371 479.4542184791517 990.2883823595562 475.3044682539775 989.9471770824066 C 475.3044682539775 989.9471770824066 445.0 986.4126738943434 445.0 986.4126738943434 C 445.0 986.4126738943434 412.5 980.9350610199399 412.5 980.9350610199399 C 412.5 980.9350610199399 386.5 974.8477517715884 386.5 974.8477517715884 C 386.5 974.8477517715884 366.5 968.9900510052946 366.5 968.9900510052946 C 366.5 968.9900510052946 344.0 961.0668912074477 344.0 961.0668912074477 C 344.0 961.0668912074477 320.5 951.8316294346955 320.5 951.8316294346955 C 320.5 951.8316294346955 300.5 942.7677482077925 300.5 942.7677482077925 C 300.5 942.7677482077925 276.0 929.708503845691 276.0 929.708503845691 C 276.0 929.708503845691 247.5 912.4544732181977 247.5 912.4544732181977 C 247.5 912.4544732181977 221.27828111973494 894.0546067755872 221.27828111973494 894.0546067755872 C 221.27828111973494 894.0546067755872 194.77828111973494 872.5629860992249 194.77828111973494 872.5629860992249 C 191.89110914334321 870.0814995968863 170.096230370589 849.6041615042595 167.45930785980576 846.8954952349795 C 167.45930785980576 846.8954952349795 144.5253390127108 822.0 144.5253390127108 822.0 C 144.5253390127108 822.0 127.41069851511776 800.8058526239231 127.41069851511776 800.8058526239231 C 127.41069851511776 800.8058526239231 110.71910261232244 776.8053713028804 110.71910261232244 776.8053713028804 C 110.71910261232244 776.8053713028804 93.12364758975559 748.3374155835429 93.12364758975559 748.3374155835429 C 92.79215380048362 747.7596480913826 80.11138760849545 723.3004617411068 79.9035253115488 722.8378969045857 C 79.9035253115488 722.8378969045857 71.80851648522551 705.0 71.80851648522551 705.0 C 71.80851648522551 705.0 65.01779731996211 689.0 65.01779731996211 689.0 C 65.01779731996211 689.0 56.538838996582484 665.0 56.538838996582484 665.0 C 56.538838996582484 665.0 47.33772622996952 632.5 47.33772622996952 632.5 C 45.86806514568143 626.6379831432857 40.57900229706876 601.0087919172271 39.49432010959683 594.4932375401062 C 39.49432010959683 594.4932375401062 34.832073832219805 561.9932375401062 34.832073832219805 561.9932375401062 C 33.950556401267264 553.7227576359811 33.52210771438061 536.6558681524983 33.564487179030806 511.5 C 33.620240290899225 478.40571854010375 33.91533153880043 471.2407875144259 35.850282282964514 456.0 C 35.850282282964514 456.0 40.59294936348209 424.5 40.59294936348209 424.5 C 40.59294936348209 424.5 46.59994002126365 396.5 46.59994002126365 396.5 C 46.59994002126365 396.5 55.15584550828339 366.5 55.15584550828339 366.5 C 55.15584550828339 366.5 66.03291687251084 336.0 66.03291687251084 336.0 C 66.03291687251084 336.0 76.5144818505753 311.0 76.5144818505753 311.0 C 76.5144818505753 311.0 88.75373218086594 286.5 88.75373218086594 286.5 C 88.75373218086594 286.5 106.35576858298441 256.5 106.35576858298441 256.5 C 106.35576858298441 256.5 124.34648989947073 230.0 124.34648989947073 230.0 C 124.34648989947073 230.0 137.89364934951706 212.5 137.89364934951706 212.5 C 137.89364934951706 212.5 148.48384640480683 200.0 148.48384640480683 200.0 C 148.48384640480683 200.0 169.99026059065898 177.6418595068966 169.99026059065898 177.6418595068966 C 177.51163470750288 169.96176363020422 194.93863483120032 153.71607157771138 202.0 147.80193493964032 C 202.0 147.80193493964032 226.5 128.0466309413193 226.5 128.0466309413193 C 226.5 128.0466309413193 246.513647980744 113.72750604107969 246.513647980744 113.72750604107969 C 246.513647980744 113.72750604107969 266.513647980744 100.9882773433459 266.513647980744 100.9882773433459 C 266.513647980744 100.9882773433459 293.0 86.99084592661461 293.0 86.99084592661461 C 293.0 86.99084592661461 321.0 73.66206574746536 321.0 73.66206574746536 C 321.0 73.66206574746536 343.5 64.70714211095665 343.5 64.70714211095665 C 343.5 64.70714211095665 366.5 56.704167543925976 366.5 56.704167543925976 C 366.5 56.704167543925976 388.5 50.095222703697274 388.5 50.095222703697274 C 388.5 50.095222703697274 413.5 44.11445166320849 413.5 44.11445166320849 C 413.5 44.11445166320849 440.5 39.11961465478604 440.5 39.11961465478604 C 440.5 39.11961465478604 464.5 35.93241991485878 464.5 35.93241991485878 C 464.5 35.93241991485878 490.5 33.991304799647516 490.5 33.991304799647516 Z"/>
<path fill="none" stroke="#818180" stroke-width="1.0" d="M 493.5 51.69618571895228 C 493.5 51.69618571895228 506.5 51.20970012458928 506.5 51.20970012458928 C 506.5 51.20970012458928 532.5 52.03426279773026 532.5 52.03426279773026 C 532.5 52.03426279773026 561.5 54.03914309160409 561.5 54.03914309160409 C 561.5 54.03914309160409 586.0 57.546198461183394 586.0 57.546198461183394 C 586.0 57.546198461183394 617.4646724161107 63.61203807769341 617.4646724161107 63.61203807769341 C 622.4775328869109 64.72895118546816 645.1156293523625 70.95542172873472 650.4646724161107 72.68848707336645 C 650.4646724161107 72.68848707336645 684.562909772783 85.074750397361 684.562909772783 85.074750397361 C 684.562909772783 85.074750397361 713.0818357459556 97.32451424850689 713.0818357459556 97.32451424850689 C 713.0818357459556 97.32451424850689 742.5189259731726 112.95644206528843 742.5189259731726 112.95644206528843 C 742.5189259731726 112.95644206528843 768.5 128.5124176673773 768.5 128.5124176673773 C 768.5 128.5124176673773 794.5 147.2229649370999 794.5 147.2229649370999 C 804.4350770620578 154.62108209194193 819.2207691149518 166.91473137273437 827.5 174.66100603891914 C 829.8531774042646 176.86270312464873 853.553305994636 200.83829809772303 855.6099798913482 203.09770797521293 C 855.6099798913482 203.09770797521293 871.7161073232547 221.0 871.7161073232547 221.0 C 871.7161073232547 221.0 884.4688803679945 237.8728531631955 884.4688803679945 237.8728531631955 C 884.4688803679945 237.8728531631955 901.4454784942541 262.3728531631955 901.4454784942541 262.3728531631955 C 901.4454784942541 262.3728531631955 915.7040764441595 286.0 915.7040764441595 286.0 C 915.7040764441595 286.0 927.7489572277434 308.5 927.7489572277434 308.5 C 927.7489572277434 308.5 936.7908081835553 328.0 936.7908081835553 328.0 C 936.7908081835553 328.0 944.9595526710343 348.5 944.9595526710343 348.5 C 944.9595526710343 348.5 954.4540395133531 377.03822245898436 954.4540395133531 377.03822245898436 C 956.5042192374118 383.744852232113 962.0272584698535 405.3608252813513 963.396795534335 412.03822245898436 C 963.396795534335 412.03822245898436 968.9584929931399 443.5 968.9584929931399 443.5 C 968.9584929931399 443.5 971.9880872416334 470.5 971.9880872416334 470.5 C 971.9880872416334 470.5 973.647699329028 503.5 973.647699329028 503.5 C 974.0059469466291 515.2401049108839 973.7743706916644 530.8769001960253 973.086974882855 541.3619706822809 C 973.086974882855 541.3619706822809 970.4467109590555 570.8619706822809 970.4467109590555 570.8619706822809 C 970.4467109590555 570.8619706822809 965.3646596779431 602.5 965.3646596779431 602.5 C 963.6359304198398 612.0700010111539 958.9383781265642 632.6240491592173 956.3568883477651 641.9133272113334 C 953.0094566851166 653.9587839588964 947.4837495163473 670.0886565614366 941.7974085267213 684.4133272113334 C 938.1708069282103 693.5492326330863 927.9557963923016 716.6940292478408 924.8929186465008 722.7149010353178 C 924.8929186465008 722.7149010353178 910.8944898356498 748.2149010353178 910.8944898356498 748.2149010353178 C 910.8944898356498 748.2149010353178 899.1994187555134 766.968672946691 899.1994187555134 766.968672946691 C 899.1994187555134 766.968672946691 883.4776384086214 788.968672946691 883.4776384086214 788.968672946691 C 883.4776384086214 788.968672946691 863.2419997432743 814.0 863.2419997432743 814.0 C 863.2419997432743 814.0 840.3957633506424 838.0966141314907 840.3957633506424 838.0966141314907 C 840.3957633506424 838.0966141314907 820.4925738020155 857.0966141314907 820.4925738020155 857.0966141314907 C 820.4925738020155 857.0966141314907 805.1593067127723 870.0 805.1593067127723 870.0 C 805.1593067127723 870.0 784.4680254553097 885.5 784.4680254553097 885.5 C 784.4680254553097 885.5 761.8012925445529 900.9324115193019 761.8012925445529 900.9324115193019 C 761.8012925445529 900.9324115193019 736.9938310946792 915.4324115193019 736.9938310946792 915.4324115193019 C 736.9938310946792 915.4324115193019 704.9938310946792 931.6711934096858 704.9938310946792 931.6711934096858 C 695.0840587837718 936.2999488698321 678.4812645113858 942.9018072927693 666.6968601742637 946.8994240253262 C 660.1563264560721 949.1181655317874 633.6360063490182 957.0316602011366 628.014874340098 958.4418823162836 C 628.014874340098 958.4418823162836 596.4922917794646 965.4475729574467 596.4922917794646 965.4475729574467 C 596.4922917794646 965.4475729574467 564.6742776136302 970.1747062058392 564.6742776136302 970.1747062058392 C 549.2797696170595 972.0440284138334 541.2996740784272 972.3853264794735 512.5 972.406130621687 C 486.5961642286959 972.4248428849505 474.8091016016239 972.0148511289073 463.0 970.6843622247386 C 463.0 970.6843622247386 435.5 966.9164410965967 435.5 966.9164410965967 C 435.5 966.9164410965967 411.94886923590786 962.5156826017936 411.94886923590786 962.5156826017936 C 411.94886923590786 962.5156826017936 382.6023073137874 955.0571458488616 382.6023073137874 955.0571458488616 C 376.95453147726045 953.4450947332308 352.34242166043236 945.2087708567663 346.54735725902526 942.9915306614253 C 346.54735725902526 942.9915306614253 315.4905021277368 929.9567572540666 315.4905021277368 929.9567572540666 C 315.4905021277368 929.9567572540666 291.59658294659107 917.8135352684717 291.59658294659107 917.8135352684717 C 291.59658294659107 917.8135352684717 266.631171921699 903.2349037046093 266.631171921699 903.2349037046093 C 266.631171921699 903.2349037046093 243.59857616939257 888.3887430976553 243.59857616939257 888.3887430976553 C 243.59857616939257 888.3887430976553 222.46740424769357 872.4330522651874 222.46740424769357 872.4330522651874 C 222.46740424769357 872.4330522651874 202.01163559342046 855.1697919878884 202.01163559342046 855.1697919878884 C 202.01163559342046 855.1697919878884 182.51163559342046 836.4730283149102 182.51163559342046 836.4730283149102 C 182.51163559342046 836.4730283149102 161.64581951743082 813.9730283149102 161.64581951743082 813.9730283149102 C 161.64581951743082 813.9730283149102 140.5191985529853 787.5 140.5191985529853 787.5 C 140.5191985529853 787.5 124.27993949990935 765.0 124.27993949990935 765.0 C 124.27993949990935 765.0 114.67923651390234 749.8043762512741 114.67923651390234 749.8043762512741 C 114.67923651390234 749.8043762512741 102.14087311410793 727.3043762512741 102.14087311410793 727.3043762512741 C 102.14087311410793 727.3043762512741 90.1441505508491 702.8619660382337 90.1441505508491 702.8619660382337 C 90.1441505508491 702.8619660382337 79.05717665864327 675.1477591164255 79.05717665864327 675.1477591164255 C 76.5545106867268 668.6802298566547 69.47874797893236 647.6485654756833 68.03929086313738 642.3987134222148 C 68.03929086313738 642.3987134222148 61.463196686722995 615.634481894485 61.463196686722995 615.634481894485 C 61.463196686722995 615.634481894485 56.481469571438964 587.0215615504621 56.481469571438964 587.0215615504621 C 56.481469571438964 587.0215615504621 52.98004030622525 560.5 52.98004030622525 560.5 C 52.83293815508749 559.1285982688921 51.40094804790491 529.7913641546588 51.32045428476775 526.5 C 50.9736742926485 512.3202773590141 51.20770970951246 494.9302028690933 51.89241878224493 484.0 C 52.214148543595336 478.86413763067094 54.89226960276728 452.13586236932906 55.59974662964555 447.0 C 55.59974662964555 447.0 60.14351059748401 418.5351433572704 60.14351059748401 418.5351433572704 C 60.14351059748401 418.5351433572704 65.58171978597153 395.253453913846 65.58171978597153 395.253453913846 C 65.58171978597153 395.253453913846 73.45839818061873 368.46268458359236 73.45839818061873 368.46268458359236 C 73.45839818061873 368.46268458359236 84.6121753916041 338.2578380704118 84.6121753916041 338.2578380704118 C 84.79298514200129 337.80767011359603 98.34528884184388 307.4039685922289 98.53920481688723 307.01346404339506 C 98.53920481688723 307.01346404339506 112.46009279837213 281.0 112.46009279837213 281.0 C 112.46009279837213 281.0 127.25970159633687 257.5 127.25970159633687 257.5 C 127.25970159633687 257.5 141.36747433904924 237.5 141.36747433904924 237.5 C 141.36747433904924 237.5 156.83144338060958 218.0 156.83144338060958 218.0 C 160.48931343851038 213.54484479173658 177.9721253236339 194.9447296051479 185.37037399193403 187.63718421494954 C 192.73045559297623 180.3673379598983 211.58002619594336 163.07970074251102 216.040339697528 159.50862618272802 C 216.040339697528 159.50862618272802 239.73702415272598 141.11643818553387 239.73702415272598 141.11643818553387 C 242.84089755541626 138.77990610936482 264.0022231872996 124.6513773965202 268.1803445916344 122.12602725852273 C 268.1803445916344 122.12602725852273 294.5 106.84813894664782 294.5 106.84813894664782 C 294.5 106.84813894664782 322.5 93.2669666971682 322.5 93.2669666971682 C 325.1741508395605 92.05360802624108 355.61312613329375 79.58371981324646 358.25015971718506 78.62125372660765 C 358.25015971718506 78.62125372660765 384.75015971718506 69.6375095708577 384.75015971718506 69.6375095708577 C 384.75015971718506 69.6375095708577 405.585044154777 64.09299211089365 405.585044154777 64.09299211089365 C 408.26063310976514 63.420115018081546 432.7866369039828 58.70292480188636 437.085044154777 58.03446365852585 C 437.085044154777 58.03446365852585 471.5 53.507911520356636 471.5 53.507911520356636 C 471.5 53.507911520356636 493.5 51.69618571895228 493.5 51.69618571895228 Z"/>
<path fill="none" stroke="#818180" stroke-width="1.0" d="M 758.0 288.43690319927 C 764.4108590900355 285.7396243677069 772.20495945479 283.13624229090334 774.0 283.09259002911637 C 775.8892639214397 283.0466464188155 779.0233769342175 283.93625345431343 780.8101756027759 285.02563459531603 C 782.6040971405638 286.11935843006756 784.7954184825352 288.65945648194224 785.5941089893574 290.5709919296367 C 787.0168881322973 293.9761817281109 786.9285200729342 294.4243410930139 783.0394485842701 303.52697390933463 C 783.0394485842701 303.52697390933463 774.1582178553473 325.7278785145764 774.1582178553473 325.7278785145764 C 774.1582178553473 325.7278785145764 762.0579148155591 356.5 762.0579148155591 356.5 C 762.0579148155591 356.5 753.4804090887772 377.5 753.4804090887772 377.5 C 753.4804090887772 377.5 744.9340075212301 399.0 744.9340075212301 399.0 C 744.9340075212301 399.0 731.4874311544527 433.5 731.4874311544527 433.5 C 731.4874311544527 433.5 715.5529082111677 474.0 715.5529082111677 474.0 C 715.5529082111677 474.0 696.7870786612043 521.5 696.7870786612043 521.5 C 696.7870786612043 521.5 678.9773383046688 566.0 678.9773383046688 566.0 C 678.9773383046688 566.0 658.6912904334636 616.5 658.6912904334636 616.5 C 658.6912904334636 616.5 637.5469572480984 670.5 637.5469572480984 670.5 C 637.5469572480984 670.5 626.2736972343145 699.3489994448803 626.2736972343145 699.3489994448803 C 625.4953147417253 701.146526355332 622.7544895417318 704.6109517637385 621.1313253544845 705.8489994448803 C 618.3036513585 708.0057715454836 616.6158022306427 708.4911573142895 612.0778422253375 708.4525685651785 C 607.0727581806899 708.4100076055727 604.1382555074742 707.2674591021919 583.5 697.3257867897061 C 583.5 697.3257867897061 548.5 680.4826222794281 548.5 680.4826222794281 C 548.5 680.4826222794281 515.6388523425601 664.8594040549006 515.6388523425601 664.8594040549006 C 515.6388523425601 664.8594040549006 494.34337696652324 655.0 494.34337696652324 655.0 C 494.34337696652324 655.0 468.73773229255755 678.75 468.73773229255755 678.75 C 468.73773229255755 678.75 430.5179450698482 715.0 430.5179450698482 715.0 C 430.5179450698482 715.0 411.87207343569924 732.2541439109716 411.87207343569924 732.2541439109716 C 410.4224334161066 733.4853933463103 403.85361105337466 737.8522742372649 403.00745172930385 738.1472469662199 C 399.92709891398164 739.2210637407119 398.75226791910825 738.7932412998443 382.4665271511418 730.6671340571694 C 368.0698632168982 723.483620778085 364.8297036308818 721.4605226641057 363.01266051939297 718.5204851506932 C 360.8337009976439 714.9948545843931 360.8324064008286 714.9558737763742 360.66624906310966 647.8691337577861 L 360.5 580.745359218028 L 348.0 575.8339322583873 C 348.0 575.8339322583873 312.5 562.5563468257603 312.5 562.5563468257603 C 312.5 562.5563468257603 279.399446666258 550.1626405882971 279.399446666258 550.1626405882971 C 279.399446666258 550.1626405882971 245.899446666258 537.4377453237098 245.899446666258 537.4377453237098 C 245.899446666258 537.4377453237098 217.84865185764954 526.4033437183327 217.84865185764954 526.4033437183327 C 216.50368500529055 525.7275696830302 211.70549036915122 522.1697562686335 211.0986518576495 521.3982861147293 C 209.56311842643765 519.4461716888167 208.99999999999986 517.2996311694028 208.99999999999983 513.3984746415281 C 208.99999999999977 508.67242507276734 209.38472048462594 507.68194618203796 212.38626047505915 504.6804061916074 C 215.0452468434395 502.0214198232294 220.7903992016092 499.3127841172819 239.13626047505926 492.06872931744033 C 239.13626047505926 492.06872931744033 284.0 474.3029906704156 284.0 474.3029906704156 C 284.0 474.3029906704156 334.0 454.4878023936815 334.0 454.4878023936815 C 334.0 454.4878023936815 384.0 434.77174353597803 384.0 434.77174353597803 C 384.0 434.77174353597803 418.0 421.51533522330516 418.0 421.51533522330516 C 418.0 421.51533522330516 452.5 407.9515154442619 452.5 407.9515154442619 C 452.5 407.9515154442619 495.5 390.97303407908396 495.5 390.97303407908396 C 495.5 390.97303407908396 527.5 378.3208911256916 527.5 378.3208911256916 C 527.5 378.3208911256916 559.0 365.8304882304125 559.0 365.8304882304125 C 559.0 365.8304882304125 589.0 353.9877946018528 589.0 353.9877946018528 C 589.0 353.9877946018528 621.5 340.9721752521621 621.5 340.9721752521621 C 621.5 340.9721752521621 680.0 318.26864547299266 680.0 318.26864547299266 C 680.0 318.26864547299266 730.5 299.25114044397367 730.5 299.25114044397367 C 730.5 299.25114044397367 758.0 288.43690319927 758.0 288.43690319927 Z"/>
<path fill="none" stroke="#828281" stroke-width="1.0" d="M 748.687020492232 325.7393478456561 C 748.687020492232 325.7393478456561 756.5911404938633 319.2578071605301 756.5911404938633 319.2578071605301 C 756.5911404938633 319.2578071605301 747.5616395474904 343.01845931487395 747.5616395474904 343.01845931487395 C 747.5616395474904 343.01845931487395 718.4762100494249 416.5 718.4762100494249 416.5 C 718.4762100494249 416.5 669.2994730658604 540.5 669.2994730658604 540.5 C 669.2994730658604 540.5 633.9723357883747 629.0 633.9723357883747 629.0 C 633.9723357883747 629.0 622.0948198637661 658.5 622.0948198637661 658.5 C 622.0948198637661 658.5 613.2485594360479 680.4412337405763 613.2485594360479 680.4412337405763 C 612.6500150240547 681.8758647338785 609.4623190142603 687.6792269952466 609.2303754279789 687.7565415240072 C 608.979214483488 687.8402618388374 586.5268180966034 678.0739442041745 580.3040766497076 675.1742132506304 C 580.3040766497076 675.1742132506304 532.0 652.4855148844226 532.0 652.4855148844226 C 532.0 652.4855148844226 478.5 626.7693141474577 478.5 626.7693141474577 C 478.5 626.7693141474577 445.0 610.2805561059305 445.0 610.2805561059305 C 444.9968790336847 610.2774048453031 452.45006453895513 602.3491961636689 452.5 602.3025492429308 C 452.5 602.3025492429308 480.0 577.1851257750623 480.0 577.1851257750623 C 480.0 577.1851257750623 510.5 548.9800472984989 510.5 548.9800472984989 C 510.5 548.9800472984989 527.0509400116701 533.4596193906716 527.0509400116701 533.4596193906716 C 527.0509400116701 533.4596193906716 555.5509400116701 507.0774354899553 555.5509400116701 507.0774354899553 C 555.5509400116701 507.0774354899553 599.9994524520165 465.5774354899553 599.9994524520165 465.5774354899553 C 599.9994524520165 465.5774354899553 632.9994524520165 434.49497141262697 632.9994524520165 434.49497141262697 C 632.9994524520165 434.49497141262697 676.4937634493838 393.49497141262697 676.4937634493838 393.49497141262697 C 676.4937634493838 393.49497141262697 724.774769429293 348.0 724.774769429293 348.0 C 724.774769429293 348.0 748.687020492232 325.7393478456561 748.687020492232 325.7393478456561 Z"/>
<path fill="none" stroke="#818181" stroke-width="1.0" d="M 703.0 328.6186972202756 C 703.0 328.6186972202756 717.3157187667152 323.04079768722306 717.3157187667152 323.04079768722306 C 717.3157187667152 323.04079768722306 695.8157187667152 337.8797683038721 695.8157187667152 337.8797683038721 C 695.8157187667152 337.8797683038721 641.0 374.4344854908793 641.0 374.4344854908793 C 641.0 374.4344854908793 593.0 406.8812711592813 593.0 406.8812711592813 C 593.0 406.8812711592813 561.5 428.80133932970284 561.5 428.80133932970284 C 561.5 428.80133932970284 530.5 450.1605746432568 530.5 450.1605746432568 C 530.5 450.1605746432568 508.0 465.912766360664 508.0 465.912766360664 C 508.0 465.912766360664 489.0 479.3868318277734 489.0 479.3868318277734 C 489.0 479.3868318277734 462.0 497.9556308460929 462.0 497.9556308460929 C 462.0 497.9556308460929 432.5 518.4746363995389 432.5 518.4746363995389 C 432.5 518.4746363995389 401.12536019066397 540.7638866029586 401.12536019066397 540.7638866029586 C 401.12536019066397 540.7638866029586 376.42858662345543 558.5850262965753 376.42858662345543 558.5850262965753 C 376.42858662345543 558.5850262965753 368.26132093481215 564.0 368.26132093481215 564.0 C 368.26132093481215 564.0 351.4580945020207 557.9375179383753 351.4580945020207 557.9375179383753 C 351.4580945020207 557.9375179383753 304.69686213078717 540.4185388065873 304.69686213078717 540.4185388065873 C 304.69686213078717 540.4185388065873 257.69686213078717 522.5488085410348 257.69686213078717 522.5488085410348 C 257.69686213078717 522.5488085410348 238.7405515325808 515.4570082285845 238.7405515325808 515.4570082285845 C 238.7405515325808 515.4570082285845 235.48279593270604 513.9721632343737 235.48279593270604 513.9721632343737 C 235.293225245406 513.6654314190515 238.2420395509346 512.1030220756792 240.24224440012523 511.4504016094206 C 240.24224440012523 511.4504016094206 285.0 493.9974757368557 285.0 493.9974757368557 C 285.0 493.9974757368557 339.5 472.4850874960174 339.5 472.4850874960174 C 339.5 472.4850874960174 370.7988367019349 459.85507068997026 370.7988367019349 459.85507068997026 C 370.7988367019349 459.85507068997026 387.6961398062541 453.0 387.6961398062541 453.0 C 387.6961398062541 453.0 416.89730310431923 441.6151095058258 416.89730310431923 441.6151095058258 C 416.89730310431923 441.6151095058258 481.0 416.1921727037492 481.0 416.1921727037492 C 481.0 416.1921727037492 546.0 390.6717505936215 546.0 390.6717505936215 C 546.0 390.6717505936215 592.5292603488369 372.6737804300666 592.5292603488369 372.6737804300666 C 592.5292603488369 372.6737804300666 649.5292603488369 350.15699256742096 649.5292603488369 350.15699256742096 C 649.5292603488369 350.15699256742096 703.0 328.6186972202756 703.0 328.6186972202756 Z"/>
<path fill="none" stroke="#808080" stroke-width="1.0" d="M 667.9778438811891 376.83225683181325 C 667.9778438811891 376.83225683181325 671.7278438811891 374.0 671.7278438811891 374.0 C 671.7278438811891 374.0 672.0 374.4245807734978 672.0 374.4245807734978 C 672.0 374.4245807734978 652.4228413702099 392.1745807734978 652.4228413702099 392.1745807734978 C 652.4228413702099 392.1745807734978 626.6728413702099 414.87087921787156 626.6728413702099 414.87087921787156 C 626.6728413702099 414.87087921787156 604.0 435.95469082569855 604.0 435.95469082569855 C 604.0 435.95469082569855 555.103544455341 482.083811607827 555.103544455341 482.083811607827 C 555.103544455341 482.083811607827 507.10354445534097 526.9033246406743 507.10354445534097 526.9033246406743 C 507.10354445534097 526.9033246406743 482.9452103683496 549.4033246406743 482.9452103683496 549.4033246406743 C 482.9452103683496 549.4033246406743 455.4559123801811 575.0 455.4559123801811 575.0 C 455.4559123801811 575.0 428.4756653431128 600.5 428.4756653431128 600.5 C 421.0858409566032 607.8478144691662 420.3209063200208 608.9891391481253 419.09263428316973 614.5 C 419.09263428316973 614.5 412.94055209623036 636.5 412.94055209623036 636.5 C 412.94055209623036 636.5 399.5594416233407 682.4201061876607 399.5594416233407 682.4201061876607 C 399.5594416233407 682.4201061876607 390.5606012770737 712.7727320562642 390.5606012770737 712.7727320562642 C 390.5606012770737 712.7727320562642 384.5168458952684 710.63634305402 384.5168458952684 710.63634305402 L 378.90561019438707 708.0674343708329 L 379.29012020397863 643.5822036334187 C 379.6047158775563 590.8221347311921 379.9241694754173 578.7962964797023 381.04702891513523 577.4433336238924 C 381.04702891513523 577.4433336238924 388.4597138083501 571.7221162090931 388.4597138083501 571.7221162090931 C 388.4597138083501 571.7221162090931 404.5 560.4911521367064 404.5 560.4911521367064 C 404.5 560.4911521367064 429.5 543.0362443342347 429.5 543.0362443342347 C 429.5 543.0362443342347 454.0 525.8225302901926 454.0 525.8225302901926 C 454.0 525.8225302901926 479.0 508.13074467423627 479.0 508.13074467423627 C 479.0 508.13074467423627 507.0 488.37402156886617 507.0 488.37402156886617 C 507.0 488.37402156886617 528.5 473.5245020914981 528.5 473.5245020914981 C 528.5 473.5245020914981 546.9371135219924 460.6942763127016 546.9371135219924 460.6942763127016 C 546.9371135219924 460.6942763127016 565.9371135219924 447.5217973126189 565.9371135219924 447.5217973126189 C 565.9371135219924 447.5217973126189 591.6078723660055 429.90857713732396 591.6078723660055 429.90857713732396 C 591.6078723660055 429.90857713732396 622.1078723660055 408.583501504581 622.1078723660055 408.583501504581 C 622.1078723660055 408.583501504581 650.5 389.1657583363942 650.5 389.1657583363942 C 650.5 389.1657583363942 667.9778438811891 376.83225683181325 667.9778438811891 376.83225683181325 Z"/>
<path fill="none" stroke="#808080" stroke-width="1.0" d="M 430.15462857139073 644.25 C 431.6099346520508 639.2776010328815 436.1080635052697 626.0 436.3372854661076 626.0 C 436.3372854661076 626.0 446.8392948984326 631.0147387278138 446.8392948984326 631.0147387278138 C 446.8392948984326 631.0147387278138 466.25 640.4464783615822 466.25 640.4464783615822 C 471.453122460268 642.803626732946 475.9949806446021 645.4782452624843 475.9892368521689 646.1817396337684 C 475.98621798934346 646.5514871533941 471.12946747283337 651.7181794378752 469.2392368521689 653.3625023271973 C 469.2392368521689 653.3625023271973 445.0763136786776 675.8625023271973 445.0763136786776 675.8625023271973 C 445.0763136786776 675.8625023271973 420.18978797660964 699.280140964599 420.18978797660964 699.280140964599 C 420.18978797660964 699.280140964599 412.2683820975292 705.6017154308624 412.2683820975292 705.6017154308624 C 412.2683820975292 705.6017154308624 414.47976745849724 695.8215744662633 414.47976745849724 695.8215744662633 C 414.47976745849724 695.8215744662633 420.9814976626159 674.5 420.9814976626159 674.5 C 420.9814976626159 674.5 430.15462857139073 644.25 430.15462857139073 644.25 Z"/>
</g>
<path fill="#fcfcfa" d="M 493.5 51.69618571895228 C 493.5 51.69618571895228 471.5 53.507911520356636 471.5 53.507911520356636 C 471.5 53.507911520356636 437.085044154777 58.03446365852585 437.085044154777 58.03446365852585 C 432.7866369039828 58.70292480188636 408.26063310976514 63.420115018081546 405.585044154777 64.09299211089365 C 405.585044154777 64.09299211089365 384.75015971718506 69.6375095708577 384.75015971718506 69.6375095708577 C 384.75015971718506 69.6375095708577 358.25015971718506 78.62125372660765 358.25015971718506 78.62125372660765 C 355.61312613329375 79.58371981324646 325.1741508395605 92.05360802624108 322.5 93.2669666971682 C 322.5 93.2669666971682 294.5 106.84813894664782 294.5 106.84813894664782 C 294.5 106.84813894664782 268.1803445916344 122.12602725852273 268.1803445916344 122.12602725852273 C 264.0022231872996 124.6513773965202 242.84089755541626 138.77990610936482 239.73702415272598 141.11643818553387 C 239.73702415272598 141.11643818553387 216.040339697528 159.50862618272802 216.040339697528 159.50862618272802 C 211.58002619594336 163.07970074251102 192.73045559297623 180.3673379598983 185.37037399193403 187.63718421494954 C 177.9721253236339 194.9447296051479 160.48931343851038 213.54484479173658 156.83144338060958 218.0 C 156.83144338060958 218.0 141.36747433904924 237.5 141.36747433904924 237.5 C 141.36747433904924 237.5 127.25970159633687 257.5 127.25970159633687 257.5 C 127.25970159633687 257.5 112.46009279837213 281.0 112.46009279837213 281.0 C 112.46009279837213 281.0 98.53920481688723 307.01346404339506 98.53920481688723 307.01346404339506 C 98.34528884184388 307.4039685922289 84.79298514200129 337.80767011359603 84.6121753916041 338.2578380704118 C 84.6121753916041 338.2578380704118 73.45839818061873 368.46268458359236 73.45839818061873 368.46268458359236 C 73.45839818061873 368.46268458359236 65.58171978597153 395.253453913846 65.58171978597153 395.253453913846 C 65.58171978597153 395.253453913846 60.14351059748401 418.5351433572704 60.14351059748401 418.5351433572704 C 60.14351059748401 418.5351433572704 55.59974662964555 447.0 55.59974662964555 447.0 C 54.89226960276728 452.13586236932906 52.214148543595336 478.86413763067094 51.89241878224493 484.0 C 51.20770970951246 494.9302028690933 50.9736742926485 512.3202773590141 51.32045428476775 526.5 C 51.40094804790491 529.7913641546588 52.83293815508749 559.1285982688921 52.98004030622525 560.5 C 52.98004030622525 560.5 56.481469571438964 587.0215615504621 56.481469571438964 587.0215615504621 C 56.481469571438964 587.0215615504621 61.463196686722995 615.634481894485 61.463196686722995 615.634481894485 C 61.463196686722995 615.634481894485 68.03929086313738 642.3987134222148 68.03929086313738 642.3987134222148 C 69.47874797893236 647.6485654756833 76.5545106867268 668.6802298566547 79.05717665864327 675.1477591164255 C 79.05717665864327 675.1477591164255 90.1441505508491 702.8619660382337 90.1441505508491 702.8619660382337 C 90.1441505508491 702.8619660382337 102.14087311410793 727.3043762512741 102.14087311410793 727.3043762512741 C 102.14087311410793 727.3043762512741 114.67923651390234 749.8043762512741 114.67923651390234 749.8043762512741 C 114.67923651390234 749.8043762512741 124.27993949990935 765.0 124.27993949990935 765.0 C 124.27993949990935 765.0 140.5191985529853 787.5 140.5191985529853 787.5 C 140.5191985529853 787.5 161.64581951743082 813.9730283149102 161.64581951743082 813.9730283149102 C 161.64581951743082 813.9730283149102 182.51163559342046 836.4730283149102 182.51163559342046 836.4730283149102 C 182.51163559342046 836.4730283149102 202.01163559342046 855.1697919878884 202.01163559342046 855.1697919878884 C 202.01163559342046 855.1697919878884 222.46740424769357 872.4330522651874 222.46740424769357 872.4330522651874 C 222.46740424769357 872.4330522651874 243.59857616939257 888.3887430976553 243.59857616939257 888.3887430976553 C 243.59857616939257 888.3887430976553 266.631171921699 903.2349037046093 266.631171921699 903.2349037046093 C 266.631171921699 903.2349037046093 291.59658294659107 917.8135352684717 291.59658294659107 917.8135352684717 C 291.59658294659107 917.8135352684717 315.4905021277368 929.9567572540666 315.4905021277368 929.9567572540666 C 315.4905021277368 929.9567572540666 346.54735725902526 942.9915306614253 346.54735725902526 942.9915306614253 C 352.34242166043236 945.2087708567663 376.95453147726045 953.4450947332308 382.6023073137874 955.0571458488616 C 382.6023073137874 955.0571458488616 411.94886923590786 962.5156826017936 411.94886923590786 962.5156826017936 C 411.94886923590786 962.5156826017936 435.5 966.9164410965967 435.5 966.9164410965967 C 435.5 966.9164410965967 463.0 970.6843622247386 463.0 970.6843622247386 C 474.8091016016239 972.0148511289073 486.5961642286959 972.4248428849505 512.5 972.406130621687 C 541.2996740784272 972.3853264794735 549.2797696170595 972.0440284138334 564.6742776136302 970.1747062058392 C 564.6742776136302 970.1747062058392 596.4922917794646 965.4475729574467 596.4922917794646 965.4475729574467 C 596.4922917794646 965.4475729574467 628.014874340098 958.4418823162836 628.014874340098 958.4418823162836 C 633.6360063490182 957.0316602011366 660.1563264560721 949.1181655317874 666.6968601742637 946.8994240253262 C 678.4812645113858 942.9018072927693 695.0840587837718 936.2999488698321 704.9938310946792 931.6711934096858 C 704.9938310946792 931.6711934096858 736.9938310946792 915.4324115193019 736.9938310946792 915.4324115193019 C 736.9938310946792 915.4324115193019 761.8012925445529 900.9324115193019 761.8012925445529 900.9324115193019 C 761.8012925445529 900.9324115193019 784.4680254553097 885.5 784.4680254553097 885.5 C 784.4680254553097 885.5 805.1593067127723 870.0 805.1593067127723 870.0 C 805.1593067127723 870.0 820.4925738020155 857.0966141314907 820.4925738020155 857.0966141314907 C 820.4925738020155 857.0966141314907 840.3957633506424 838.0966141314907 840.3957633506424 838.0966141314907 C 840.3957633506424 838.0966141314907 863.2419997432743 814.0 863.2419997432743 814.0 C 863.2419997432743 814.0 883.4776384086214 788.968672946691 883.4776384086214 788.968672946691 C 883.4776384086214 788.968672946691 899.1994187555134 766.968672946691 899.1994187555134 766.968672946691 C 899.1994187555134 766.968672946691 910.8944898356498 748.2149010353178 910.8944898356498 748.2149010353178 C 910.8944898356498 748.2149010353178 924.8929186465008 722.7149010353178 924.8929186465008 722.7149010353178 C 927.9557963923016 716.6940292478408 938.1708069282103 693.5492326330863 941.7974085267213 684.4133272113334 C 947.4837495163473 670.0886565614366 953.0094566851166 653.9587839588964 956.3568883477651 641.9133272113334 C 958.9383781265642 632.6240491592173 963.6359304198398 612.0700010111539 965.3646596779431 602.5 C 965.3646596779431 602.5 970.4467109590555 570.8619706822809 970.4467109590555 570.8619706822809 C 970.4467109590555 570.8619706822809 973.086974882855 541.3619706822809 973.086974882855 541.3619706822809 C 973.7743706916644 530.8769001960253 974.0059469466291 515.2401049108839 973.647699329028 503.5 C 973.647699329028 503.5 971.9880872416334 470.5 971.9880872416334 470.5 C 971.9880872416334 470.5 968.9584929931399 443.5 968.9584929931399 443.5 C 968.9584929931399 443.5 963.396795534335 412.03822245898436 963.396795534335 412.03822245898436 C 962.0272584698535 405.3608252813513 956.5042192374118 383.744852232113 954.4540395133531 377.03822245898436 C 954.4540395133531 377.03822245898436 944.9595526710343 348.5 944.9595526710343 348.5 C 944.9595526710343 348.5 936.7908081835553 328.0 936.7908081835553 328.0 C 936.7908081835553 328.0 927.7489572277434 308.5 927.7489572277434 308.5 C 927.7489572277434 308.5 915.7040764441595 286.0 915.7040764441595 286.0 C 915.7040764441595 286.0 901.4454784942541 262.3728531631955 901.4454784942541 262.3728531631955 C 901.4454784942541 262.3728531631955 884.4688803679945 237.8728531631955 884.4688803679945 237.8728531631955 C 884.4688803679945 237.8728531631955 871.7161073232547 221.0 871.7161073232547 221.0 C 871.7161073232547 221.0 855.6099798913482 203.09770797521293 855.6099798913482 203.09770797521293 C 853.553305994636 200.83829809772303 829.8531774042646 176.86270312464873 827.5 174.66100603891914 C 819.2207691149518 166.91473137273437 804.4350770620578 154.62108209194193 794.5 147.2229649370999 C 794.5 147.2229649370999 768.5 128.5124176673773 768.5 128.5124176673773 C 768.5 128.5124176673773 742.5189259731726 112.95644206528843 742.5189259731726 112.95644206528843 C 742.5189259731726 112.95644206528843 713.0818357459556 97.32451424850689 713.0818357459556 97.32451424850689 C 713.0818357459556 97.32451424850689 684.562909772783 85.074750397361 684.562909772783 85.074750397361 C 684.562909772783 85.074750397361 650.4646724161107 72.68848707336645 650.4646724161107 72.68848707336645 C 645.1156293523625 70.95542172873472 622.4775328869109 64.72895118546816 617.4646724161107 63.61203807769341 C 617.4646724161107 63.61203807769341 586.0 57.546198461183394 586.0 57.546198461183394 C 586.0 57.546198461183394 561.5 54.03914309160409 561.5 54.03914309160409 C 561.5 54.03914309160409 532.5 52.03426279773026 532.5 52.03426279773026 C 532.5 52.03426279773026 506.5 51.20970012458928 506.5 51.20970012458928 C 506.5 51.20970012458928 493.5 51.69618571895228 493.5 51.69618571895228 Z M 758.0 288.43690319927 C 764.4108590900355 285.7396243677069 772.20495945479 283.13624229090334 774.0 283.09259002911637 C 775.8892639214397 283.0466464188155 779.0233769342175 283.93625345431343 780.8101756027759 285.02563459531603 C 782.6040971405638 286.11935843006756 784.7954184825352 288.65945648194224 785.5941089893574 290.5709919296367 C 787.0168881322973 293.9761817281109 786.9285200729342 294.4243410930139 783.0394485842701 303.52697390933463 C 783.0394485842701 303.52697390933463 774.1582178553473 325.7278785145764 774.1582178553473 325.7278785145764 C 774.1582178553473 325.7278785145764 762.0579148155591 356.5 762.0579148155591 356.5 C 762.0579148155591 356.5 753.4804090887772 377.5 753.4804090887772 377.5 C 753.4804090887772 377.5 744.9340075212301 399.0 744.9340075212301 399.0 C 744.9340075212301 399.0 731.4874311544527 433.5 731.4874311544527 433.5 C 731.4874311544527 433.5 715.5529082111677 474.0 715.5529082111677 474.0 C 715.5529082111677 474.0 696.7870786612043 521.5 696.7870786612043 521.5 C 696.7870786612043 521.5 678.9773383046688 566.0 678.9773383046688 566.0 C 678.9773383046688 566.0 658.6912904334636 616.5 658.6912904334636 616.5 C 658.6912904334636 616.5 637.5469572480984 670.5 637.5469572480984 670.5 C 637.5469572480984 670.5 626.2736972343145 699.3489994448803 626.2736972343145 699.3489994448803 C 625.4953147417253 701.146526355332 622.7544895417318 704.6109517637385 621.1313253544845 705.8489994448803 C 618.3036513585 708.0057715454836 616.6158022306427 708.4911573142895 612.0778422253375 708.4525685651785 C 607.0727581806899 708.4100076055727 604.1382555074742 707.2674591021919 583.5 697.3257867897061 C 583.5 697.3257867897061 548.5 680.4826222794281 548.5 680.4826222794281 C 548.5 680.4826222794281 515.6388523425601 664.8594040549006 515.6388523425601 664.8594040549006 C 515.6388523425601 664.8594040549006 494.34337696652324 655.0 494.34337696652324 655.0 C 494.34337696652324 655.0 468.73773229255755 678.75 468.73773229255755 678.75 C 468.73773229255755 678.75 430.5179450698482 715.0 430.5179450698482 715.0 C 430.5179450698482 715.0 411.87207343569924 732.2541439109716 411.87207343569924 732.2541439109716 C 410.4224334161066 733.4853933463103 403.85361105337466 737.8522742372649 403.00745172930385 738.1472469662199 C 399.92709891398164 739.2210637407119 398.75226791910825 738.7932412998443 382.4665271511418 730.6671340571694 C 368.0698632168982 723.483620778085 364.8297036308818 721.4605226641057 363.01266051939297 718.5204851506932 C 360.8337009976439 714.9948545843931 360.8324064008286 714.9558737763742 360.66624906310966 647.8691337577861 L 360.5 580.745359218028 L 348.0 575.8339322583873 C 348.0 575.8339322583873 312.5 562.5563468257603 312.5 562.5563468257603 C 312.5 562.5563468257603 279.399446666258 550.1626405882971 279.399446666258 550.1626405882971 C 279.399446666258 550.1626405882971 245.899446666258 537.4377453237098 245.899446666258 537.4377453237098 C 245.899446666258 537.4377453237098 217.84865185764954 526.4033437183327 217.84865185764954 526.4033437183327 C 216.50368500529055 525.7275696830302 211.70549036915122 522.1697562686335 211.0986518576495 521.3982861147293 C 209.56311842643765 519.4461716888167 208.99999999999986 517.2996311694028 208.99999999999983 513.3984746415281 C 208.99999999999977 508.67242507276734 209.38472048462594 507.68194618203796 212.38626047505915 504.6804061916074 C 215.0452468434395 502.0214198232294 220.7903992016092 499.3127841172819 239.13626047505926 492.06872931744033 C 239.13626047505926 492.06872931744033 284.0 474.3029906704156 284.0 474.3029906704156 C 284.0 474.3029906704156 334.0 454.4878023936815 334.0 454.4878023936815 C 334.0 454.4878023936815 384.0 434.77174353597803 384.0 434.77174353597803 C 384.0 434.77174353597803 418.0 421.51533522330516 418.0 421.51533522330516 C 418.0 421.51533522330516 452.5 407.9515154442619 452.5 407.9515154442619 C 452.5 407.9515154442619 495.5 390.97303407908396 495.5 390.97303407908396 C 495.5 390.97303407908396 527.5 378.3208911256916 527.5 378.3208911256916 C 527.5 378.3208911256916 559.0 365.8304882304125 559.0 365.8304882304125 C 559.0 365.8304882304125 589.0 353.9877946018528 589.0 353.9877946018528 C 589.0 353.9877946018528 621.5 340.9721752521621 621.5 340.9721752521621 C 621.5 340.9721752521621 680.0 318.26864547299266 680.0 318.26864547299266 C 680.0 318.26864547299266 730.5 299.25114044397367 730.5 299.25114044397367 C 730.5 299.25114044397367 758.0 288.43690319927 758.0 288.43690319927 Z"/>
<path fill="#fdfdfc" d="M 748.687020492232 325.7393478456561 C 748.687020492232 325.7393478456561 724.774769429293 348.0 724.774769429293 348.0 C 724.774769429293 348.0 676.4937634493838 393.49497141262697 676.4937634493838 393.49497141262697 C 676.4937634493838 393.49497141262697 632.9994524520165 434.49497141262697 632.9994524520165 434.49497141262697 C 632.9994524520165 434.49497141262697 599.9994524520165 465.5774354899553 599.9994524520165 465.5774354899553 C 599.9994524520165 465.5774354899553 555.5509400116701 507.0774354899553 555.5509400116701 507.0774354899553 C 555.5509400116701 507.0774354899553 527.0509400116701 533.4596193906716 527.0509400116701 533.4596193906716 C 527.0509400116701 533.4596193906716 510.5 548.9800472984989 510.5 548.9800472984989 C 510.5 548.9800472984989 480.0 577.1851257750623 480.0 577.1851257750623 C 480.0 577.1851257750623 452.5 602.3025492429308 452.5 602.3025492429308 C 452.45006453895513 602.3491961636689 444.9968790336847 610.2774048453031 445.0 610.2805561059305 C 445.0 610.2805561059305 478.5 626.7693141474577 478.5 626.7693141474577 C 478.5 626.7693141474577 532.0 652.4855148844226 532.0 652.4855148844226 C 532.0 652.4855148844226 580.3040766497076 675.1742132506304 580.3040766497076 675.1742132506304 C 586.5268180966034 678.0739442041745 608.979214483488 687.8402618388374 609.2303754279789 687.7565415240072 C 609.4623190142603 687.6792269952466 612.6500150240547 681.8758647338785 613.2485594360479 680.4412337405763 C 613.2485594360479 680.4412337405763 622.0948198637661 658.5 622.0948198637661 658.5 C 622.0948198637661 658.5 633.9723357883747 629.0 633.9723357883747 629.0 C 633.9723357883747 629.0 669.2994730658604 540.5 669.2994730658604 540.5 C 669.2994730658604 540.5 718.4762100494249 416.5 718.4762100494249 416.5 C 718.4762100494249 416.5 747.5616395474904 343.01845931487395 747.5616395474904 343.01845931487395 C 747.5616395474904 343.01845931487395 756.5911404938633 319.2578071605301 756.5911404938633 319.2578071605301 C 756.5911404938633 319.2578071605301 748.687020492232 325.7393478456561 748.687020492232 325.7393478456561 Z"/>
<path fill="#fcfcfc" d="M 703.0 328.6186972202756 C 703.0 328.6186972202756 649.5292603488369 350.15699256742096 649.5292603488369 350.15699256742096 C 649.5292603488369 350.15699256742096 592.5292603488369 372.6737804300666 592.5292603488369 372.6737804300666 C 592.5292603488369 372.6737804300666 546.0 390.6717505936215 546.0 390.6717505936215 C 546.0 390.6717505936215 481.0 416.1921727037492 481.0 416.1921727037492 C 481.0 416.1921727037492 416.89730310431923 441.6151095058258 416.89730310431923 441.6151095058258 C 416.89730310431923 441.6151095058258 387.6961398062541 453.0 387.6961398062541 453.0 C 387.6961398062541 453.0 370.7988367019349 459.85507068997026 370.7988367019349 459.85507068997026 C 370.7988367019349 459.85507068997026 339.5 472.4850874960174 339.5 472.4850874960174 C 339.5 472.4850874960174 285.0 493.9974757368557 285.0 493.9974757368557 C 285.0 493.9974757368557 240.24224440012523 511.4504016094206 240.24224440012523 511.4504016094206 C 238.2420395509346 512.1030220756792 235.293225245406 513.6654314190515 235.48279593270604 513.9721632343737 C 235.48279593270604 513.9721632343737 238.7405515325808 515.4570082285845 238.7405515325808 515.4570082285845 C 238.7405515325808 515.4570082285845 257.69686213078717 522.5488085410348 257.69686213078717 522.5488085410348 C 257.69686213078717 522.5488085410348 304.69686213078717 540.4185388065873 304.69686213078717 540.4185388065873 C 304.69686213078717 540.4185388065873 351.4580945020207 557.9375179383753 351.4580945020207 557.9375179383753 C 351.4580945020207 557.9375179383753 368.26132093481215 564.0 368.26132093481215 564.0 C 368.26132093481215 564.0 376.42858662345543 558.5850262965753 376.42858662345543 558.5850262965753 C 376.42858662345543 558.5850262965753 401.12536019066397 540.7638866029586 401.12536019066397 540.7638866029586 C 401.12536019066397 540.7638866029586 432.5 518.4746363995389 432.5 518.4746363995389 C 432.5 518.4746363995389 462.0 497.9556308460929 462.0 497.9556308460929 C 462.0 497.9556308460929 489.0 479.3868318277734 489.0 479.3868318277734 C 489.0 479.3868318277734 508.0 465.912766360664 508.0 465.912766360664 C 508.0 465.912766360664 530.5 450.1605746432568 530.5 450.1605746432568 C 530.5 450.1605746432568 561.5 428.80133932970284 561.5 428.80133932970284 C 561.5 428.80133932970284 593.0 406.8812711592813 593.0 406.8812711592813 C 593.0 406.8812711592813 641.0 374.4344854908793 641.0 374.4344854908793 C 641.0 374.4344854908793 695.8157187667152 337.8797683038721 695.8157187667152 337.8797683038721 C 695.8157187667152 337.8797683038721 717.3157187667152 323.04079768722306 717.3157187667152 323.04079768722306 C 717.3157187667152 323.04079768722306 703.0 328.6186972202756 703.0 328.6186972202756 Z"/>
<path fill="#fafafb" d="M 667.9778438811891 376.83225683181325 C 667.9778438811891 376.83225683181325 650.5 389.1657583363942 650.5 389.1657583363942 C 650.5 389.1657583363942 622.1078723660055 408.583501504581 622.1078723660055 408.583501504581 C 622.1078723660055 408.583501504581 591.6078723660055 429.90857713732396 591.6078723660055 429.90857713732396 C 591.6078723660055 429.90857713732396 565.9371135219924 447.5217973126189 565.9371135219924 447.5217973126189 C 565.9371135219924 447.5217973126189 546.9371135219924 460.6942763127016 546.9371135219924 460.6942763127016 C 546.9371135219924 460.6942763127016 528.5 473.5245020914981 528.5 473.5245020914981 C 528.5 473.5245020914981 507.0 488.37402156886617 507.0 488.37402156886617 C 507.0 488.37402156886617 479.0 508.13074467423627 479.0 508.13074467423627 C 479.0 508.13074467423627 454.0 525.8225302901926 454.0 525.8225302901926 C 454.0 525.8225302901926 429.5 543.0362443342347 429.5 543.0362443342347 C 429.5 543.0362443342347 404.5 560.4911521367064 404.5 560.4911521367064 C 404.5 560.4911521367064 388.4597138083501 571.7221162090931 388.4597138083501 571.7221162090931 C 388.4597138083501 571.7221162090931 381.04702891513523 577.4433336238924 381.04702891513523 577.4433336238924 C 379.9241694754173 578.7962964797023 379.6047158775563 590.8221347311921 379.29012020397863 643.5822036334187 L 378.90561019438707 708.0674343708329 L 384.5168458952684 710.63634305402 C 384.5168458952684 710.63634305402 390.5606012770737 712.7727320562642 390.5606012770737 712.7727320562642 C 390.5606012770737 712.7727320562642 399.5594416233407 682.4201061876607 399.5594416233407 682.4201061876607 C 399.5594416233407 682.4201061876607 412.94055209623036 636.5 412.94055209623036 636.5 C 412.94055209623036 636.5 419.09263428316973 614.5 419.09263428316973 614.5 C 420.3209063200208 608.9891391481253 421.0858409566032 607.8478144691662 428.4756653431128 600.5 C 428.4756653431128 600.5 455.4559123801811 575.0 455.4559123801811 575.0 C 455.4559123801811 575.0 482.9452103683496 549.4033246406743 482.9452103683496 549.4033246406743 C 482.9452103683496 549.4033246406743 507.10354445534097 526.9033246406743 507.10354445534097 526.9033246406743 C 507.10354445534097 526.9033246406743 555.103544455341 482.083811607827 555.103544455341 482.083811607827 C 555.103544455341 482.083811607827 604.0 435.95469082569855 604.0 435.95469082569855 C 604.0 435.95469082569855 626.6728413702099 414.87087921787156 626.6728413702099 414.87087921787156 C 626.6728413702099 414.87087921787156 652.4228413702099 392.1745807734978 652.4228413702099 392.1745807734978 C 652.4228413702099 392.1745807734978 672.0 374.4245807734978 672.0 374.4245807734978 C 672.0 374.4245807734978 671.7278438811891 374.0 671.7278438811891 374.0 C 671.7278438811891 374.0 667.9778438811891 376.83225683181325 667.9778438811891 376.83225683181325 Z"/>
<path fill="#fafafa" d="M 430.15462857139073 644.25 C 430.15462857139073 644.25 420.9814976626159 674.5 420.9814976626159 674.5 C 420.9814976626159 674.5 414.47976745849724 695.8215744662633 414.47976745849724 695.8215744662633 C 414.47976745849724 695.8215744662633 412.2683820975292 705.6017154308624 412.2683820975292 705.6017154308624 C 412.2683820975292 705.6017154308624 420.18978797660964 699.280140964599 420.18978797660964 699.280140964599 C 420.18978797660964 699.280140964599 445.0763136786776 675.8625023271973 445.0763136786776 675.8625023271973 C 445.0763136786776 675.8625023271973 469.2392368521689 653.3625023271973 469.2392368521689 653.3625023271973 C 471.12946747283337 651.7181794378752 475.98621798934346 646.5514871533941 475.9892368521689 646.1817396337684 C 475.9949806446021 645.4782452624843 471.453122460268 642.803626732946 466.25 640.4464783615822 C 466.25 640.4464783615822 446.8392948984326 631.0147387278138 446.8392948984326 631.0147387278138 C 446.8392948984326 631.0147387278138 436.3372854661076 626.0 436.3372854661076 626.0 C 436.1080635052697 626.0 431.6099346520508 639.2776010328815 430.15462857139073 644.25 Z"/>
<path fill="#fdfdfc" d="M 0.0 512.0 L 0.0 1024.0 L 512.0 1024.0 L 1024.0 1024.0 L 1024.0 512.0 L 1024.0 0.0 L 512.0 0.0 L 0.0 0.0 L 0.0 512.0 Z M 490.5 33.991304799647516 C 494.6615342591568 33.768272151564375 517.783594506289 33.513059173504615 522.5 33.63810031827241 C 522.5 33.63810031827241 550.5 35.10769874623191 550.5 35.10769874623191 C 550.5 35.10769874623191 579.5 38.62557386582341 579.5 38.62557386582341 C 579.5 38.62557386582341 609.5 43.5783841531169 609.5 43.5783841531169 C 609.5 43.5783841531169 626.0 47.14422143478035 626.0 47.14422143478035 C 626.0 47.14422143478035 643.5 52.08040751025895 643.5 52.08040751025895 C 643.5 52.08040751025895 671.4343446685383 61.003124957254556 671.4343446685383 61.003124957254556 C 671.4343446685383 61.003124957254556 696.9343446685383 70.44286015821564 696.9343446685383 70.44286015821564 C 696.9343446685383 70.44286015821564 725.0 83.31971573169959 725.0 83.31971573169959 C 727.6450644256169 84.60985100157923 753.9595217288099 98.74834973350936 756.0 99.97571040564824 C 756.0 99.97571040564824 784.1342310335356 117.9842775296699 784.1342310335356 117.9842775296699 C 784.1342310335356 117.9842775296699 812.1144821556165 138.18625434862685 812.1144821556165 138.18625434862685 C 812.1144821556165 138.18625434862685 832.480251122081 154.94117932447165 832.480251122081 154.94117932447165 C 832.480251122081 154.94117932447165 850.3429120995413 171.94117932447165 850.3429120995413 171.94117932447165 C 850.3429120995413 171.94117932447165 873.3691662352516 196.5 873.3691662352516 196.5 C 873.3691662352516 196.5 889.5914766563571 215.5 889.5914766563571 215.5 C 889.5914766563571 215.5 901.2251547232165 231.00609274342384 901.2251547232165 231.00609274342384 C 901.2251547232165 231.00609274342384 919.7424174887954 258.50609274342384 919.7424174887954 258.50609274342384 C 922.5445348915536 262.86578071195987 936.6765711490949 287.02356524064476 938.7509931698087 291.0 C 938.7509931698087 291.0 951.9467798291811 318.2584585698849 951.9467798291811 318.2584585698849 C 951.9467798291811 318.2584585698849 960.1237907436252 338.2584585698849 960.1237907436252 338.2584585698849 C 960.1237907436252 338.2584585698849 965.6708687802477 354.0 965.6708687802477 354.0 C 965.6708687802477 354.0 973.6421115887179 380.5 973.6421115887179 380.5 C 975.36947452043 386.47658634028477 981.48017666039 411.3062895483483 982.5570814800896 416.72432438067256 C 982.8465002728459 418.18042437354 987.794861329328 448.58964379063366 987.9623937012583 449.9416509813867 C 987.9623937012583 449.9416509813867 991.0960933306076 484.21732660071416 991.0960933306076 484.21732660071416 C 991.7773571658378 495.0297498473897 991.9957799442909 511.5640793482748 991.6306607466702 524.6834073831938 C 991.6306607466702 524.6834073831938 989.9682576609771 559.1834073831938 989.9682576609771 559.1834073831938 C 989.9682576609771 559.1834073831938 985.9919425228737 590.5 985.9919425228737 590.5 C 985.9919425228737 590.5 980.5105968021015 621.0 980.5105968021015 621.0 C 980.5105968021015 621.0 973.3905622412251 647.8061767957865 973.3905622412251 647.8061767957865 C 973.3905622412251 647.8061767957865 961.5079538015859 682.8061767957865 961.5079538015859 682.8061767957865 C 961.5079538015859 682.8061767957865 950.5287742000266 710.5 950.5287742000266 710.5 C 950.5287742000266 710.5 941.2902974644569 729.5 941.2902974644569 729.5 C 941.2902974644569 729.5 928.9406936874706 752.5996151889789 928.9406936874706 752.5996151889789 C 928.9406936874706 752.5996151889789 914.4229672195902 776.0996151889789 914.4229672195902 776.0996151889789 C 914.4229672195902 776.0996151889789 896.6921835221267 801.0 896.6921835221267 801.0 C 896.6921835221267 801.0 883.719603629336 818.0 883.719603629336 818.0 C 883.719603629336 818.0 869.1188791605962 834.3212030883155 869.1188791605962 834.3212030883155 C 866.155452467884 837.5912857649176 845.2083698224161 858.4798046432935 841.0 862.3614676027616 C 841.0 862.3614676027616 814.5 885.6714223526355 814.5 885.6714223526355 C 814.5 885.6714223526355 796.5 899.3626367420146 796.5 899.3626367420146 C 796.5 899.3626367420146 776.0 913.4019029657308 776.0 913.4019029657308 C 776.0 913.4019029657308 752.5 927.9489850232212 752.5 927.9489850232212 C 752.5 927.9489850232212 723.0 943.2785609613154 723.0 943.2785609613154 C 719.0246800930515 945.2600836738125 696.2562626498897 955.5442025963412 694.0 956.3773830247217 C 694.0 956.3773830247217 666.1617750354617 966.1367900380411 666.1617750354617 966.1367900380411 C 665.1700586041413 966.473231620201 635.9432048999018 975.2436155438635 635.1617750354617 975.4392590750726 C 635.1617750354617 975.4392590750726 609.5 981.3554264089055 609.5 981.3554264089055 C 609.5 981.3554264089055 580.0 986.3821181960677 580.0 986.3821181960677 C 580.0 986.3821181960677 548.5 989.9524767574153 548.5 989.9524767574153 C 544.6717509233275 990.2366939151052 517.6472020389516 990.9948207771229 511.3044682539775 990.9959329085 C 503.7871187493473 990.9972509963371 479.4542184791517 990.2883823595562 475.3044682539775 989.9471770824066 C 475.3044682539775 989.9471770824066 445.0 986.4126738943434 445.0 986.4126738943434 C 445.0 986.4126738943434 412.5 980.9350610199399 412.5 980.9350610199399 C 412.5 980.9350610199399 386.5 974.8477517715884 386.5 974.8477517715884 C 386.5 974.8477517715884 366.5 968.9900510052946 366.5 968.9900510052946 C 366.5 968.9900510052946 344.0 961.0668912074477 344.0 961.0668912074477 C 344.0 961.0668912074477 320.5 951.8316294346955 320.5 951.8316294346955 C 320.5 951.8316294346955 300.5 942.7677482077925 300.5 942.7677482077925 C 300.5 942.7677482077925 276.0 929.708503845691 276.0 929.708503845691 C 276.0 929.708503845691 247.5 912.4544732181977 247.5 912.4544732181977 C 247.5 912.4544732181977 221.27828111973494 894.0546067755872 221.27828111973494 894.0546067755872 C 221.27828111973494 894.0546067755872 194.77828111973494 872.5629860992249 194.77828111973494 872.5629860992249 C 191.89110914334321 870.0814995968863 170.096230370589 849.6041615042595 167.45930785980576 846.8954952349795 C 167.45930785980576 846.8954952349795 144.5253390127108 822.0 144.5253390127108 822.0 C 144.5253390127108 822.0 127.41069851511776 800.8058526239231 127.41069851511776 800.8058526239231 C 127.41069851511776 800.8058526239231 110.71910261232244 776.8053713028804 110.71910261232244 776.8053713028804 C 110.71910261232244 776.8053713028804 93.12364758975559 748.3374155835429 93.12364758975559 748.3374155835429 C 92.79215380048362 747.7596480913826 80.11138760849545 723.3004617411068 79.9035253115488 722.8378969045857 C 79.9035253115488 722.8378969045857 71.80851648522551 705.0 71.80851648522551 705.0 C 71.80851648522551 705.0 65.01779731996211 689.0 65.01779731996211 689.0 C 65.01779731996211 689.0 56.538838996582484 665.0 56.538838996582484 665.0 C 56.538838996582484 665.0 47.33772622996952 632.5 47.33772622996952 632.5 C 45.86806514568143 626.6379831432857 40.57900229706876 601.0087919172271 39.49432010959683 594.4932375401062 C 39.49432010959683 594.4932375401062 34.832073832219805 561.9932375401062 34.832073832219805 561.9932375401062 C 33.950556401267264 553.7227576359811 33.52210771438061 536.6558681524983 33.564487179030806 511.5 C 33.620240290899225 478.40571854010375 33.91533153880043 471.2407875144259 35.850282282964514 456.0 C 35.850282282964514 456.0 40.59294936348209 424.5 40.59294936348209 424.5 C 40.59294936348209 424.5 46.59994002126365 396.5 46.59994002126365 396.5 C 46.59994002126365 396.5 55.15584550828339 366.5 55.15584550828339 366.5 C 55.15584550828339 366.5 66.03291687251084 336.0 66.03291687251084 336.0 C 66.03291687251084 336.0 76.5144818505753 311.0 76.5144818505753 311.0 C 76.5144818505753 311.0 88.75373218086594 286.5 88.75373218086594 286.5 C 88.75373218086594 286.5 106.35576858298441 256.5 106.35576858298441 256.5 C 106.35576858298441 256.5 124.34648989947073 230.0 124.34648989947073 230.0 C 124.34648989947073 230.0 137.89364934951706 212.5 137.89364934951706 212.5 C 137.89364934951706 212.5 148.48384640480683 200.0 148.48384640480683 200.0 C 148.48384640480683 200.0 169.99026059065898 177.6418595068966 169.99026059065898 177.6418595068966 C 177.51163470750288 169.96176363020422 194.93863483120032 153.71607157771138 202.0 147.80193493964032 C 202.0 147.80193493964032 226.5 128.0466309413193 226.5 128.0466309413193 C 226.5 128.0466309413193 246.513647980744 113.72750604107969 246.513647980744 113.72750604107969 C 246.513647980744 113.72750604107969 266.513647980744 100.9882773433459 266.513647980744 100.9882773433459 C 266.513647980744 100.9882773433459 293.0 86.99084592661461 293.0 86.99084592661461 C 293.0 86.99084592661461 321.0 73.66206574746536 321.0 73.66206574746536 C 321.0 73.66206574746536 343.5 64.70714211095665 343.5 64.70714211095665 C 343.5 64.70714211095665 366.5 56.704167543925976 366.5 56.704167543925976 C 366.5 56.704167543925976 388.5 50.095222703697274 388.5 50.095222703697274 C 388.5 50.095222703697274 413.5 44.11445166320849 413.5 44.11445166320849 C 413.5 44.11445166320849 440.5 39.11961465478604 440.5 39.11961465478604 C 440.5 39.11961465478604 464.5 35.93241991485878 464.5 35.93241991485878 C 464.5 35.93241991485878 490.5 33.991304799647516 490.5 33.991304799647516 Z"/>
<path fill="#060606" d="M 490.5 33.991304799647516 C 490.5 33.991304799647516 464.5 35.93241991485878 464.5 35.93241991485878 C 464.5 35.93241991485878 440.5 39.11961465478604 440.5 39.11961465478604 C 440.5 39.11961465478604 413.5 44.11445166320849 413.5 44.11445166320849 C 413.5 44.11445166320849 388.5 50.095222703697274 388.5 50.095222703697274 C 388.5 50.095222703697274 366.5 56.704167543925976 366.5 56.704167543925976 C 366.5 56.704167543925976 343.5 64.70714211095665 343.5 64.70714211095665 C 343.5 64.70714211095665 321.0 73.66206574746536 321.0 73.66206574746536 C 321.0 73.66206574746536 293.0 86.99084592661461 293.0 86.99084592661461 C 293.0 86.99084592661461 266.513647980744 100.9882773433459 266.513647980744 100.9882773433459 C 266.513647980744 100.9882773433459 246.513647980744 113.72750604107969 246.513647980744 113.72750604107969 C 246.513647980744 113.72750604107969 226.5 128.0466309413193 226.5 128.0466309413193 C 226.5 128.0466309413193 202.0 147.80193493964032 202.0 147.80193493964032 C 194.93863483120032 153.71607157771138 177.51163470750288 169.96176363020422 169.99026059065898 177.6418595068966 C 169.99026059065898 177.6418595068966 148.48384640480683 200.0 148.48384640480683 200.0 C 148.48384640480683 200.0 137.89364934951706 212.5 137.89364934951706 212.5 C 137.89364934951706 212.5 124.34648989947073 230.0 124.34648989947073 230.0 C 124.34648989947073 230.0 106.35576858298441 256.5 106.35576858298441 256.5 C 106.35576858298441 256.5 88.75373218086594 286.5 88.75373218086594 286.5 C 88.75373218086594 286.5 76.5144818505753 311.0 76.5144818505753 311.0 C 76.5144818505753 311.0 66.03291687251084 336.0 66.03291687251084 336.0 C 66.03291687251084 336.0 55.15584550828339 366.5 55.15584550828339 366.5 C 55.15584550828339 366.5 46.59994002126365 396.5 46.59994002126365 396.5 C 46.59994002126365 396.5 40.59294936348209 424.5 40.59294936348209 424.5 C 40.59294936348209 424.5 35.850282282964514 456.0 35.850282282964514 456.0 C 33.91533153880043 471.2407875144259 33.620240290899225 478.40571854010375 33.564487179030806 511.5 C 33.52210771438061 536.6558681524983 33.950556401267264 553.7227576359811 34.832073832219805 561.9932375401062 C 34.832073832219805 561.9932375401062 39.49432010959683 594.4932375401062 39.49432010959683 594.4932375401062 C 40.57900229706876 601.0087919172271 45.86806514568143 626.6379831432857 47.33772622996952 632.5 C 47.33772622996952 632.5 56.538838996582484 665.0 56.538838996582484 665.0 C 56.538838996582484 665.0 65.01779731996211 689.0 65.01779731996211 689.0 C 65.01779731996211 689.0 71.80851648522551 705.0 71.80851648522551 705.0 C 71.80851648522551 705.0 79.9035253115488 722.8378969045857 79.9035253115488 722.8378969045857 C 80.11138760849545 723.3004617411068 92.79215380048362 747.7596480913826 93.12364758975559 748.3374155835429 C 93.12364758975559 748.3374155835429 110.71910261232244 776.8053713028804 110.71910261232244 776.8053713028804 C 110.71910261232244 776.8053713028804 127.41069851511776 800.8058526239231 127.41069851511776 800.8058526239231 C 127.41069851511776 800.8058526239231 144.5253390127108 822.0 144.5253390127108 822.0 C 144.5253390127108 822.0 167.45930785980576 846.8954952349795 167.45930785980576 846.8954952349795 C 170.096230370589 849.6041615042595 191.89110914334321 870.0814995968863 194.77828111973494 872.5629860992249 C 194.77828111973494 872.5629860992249 221.27828111973494 894.0546067755872 221.27828111973494 894.0546067755872 C 221.27828111973494 894.0546067755872 247.5 912.4544732181977 247.5 912.4544732181977 C 247.5 912.4544732181977 276.0 929.708503845691 276.0 929.708503845691 C 276.0 929.708503845691 300.5 942.7677482077925 300.5 942.7677482077925 C 300.5 942.7677482077925 320.5 951.8316294346955 320.5 951.8316294346955 C 320.5 951.8316294346955 344.0 961.0668912074477 344.0 961.0668912074477 C 344.0 961.0668912074477 366.5 968.9900510052946 366.5 968.9900510052946 C 366.5 968.9900510052946 386.5 974.8477517715884 386.5 974.8477517715884 C 386.5 974.8477517715884 412.5 980.9350610199399 412.5 980.9350610199399 C 412.5 980.9350610199399 445.0 986.4126738943434 445.0 986.4126738943434 C 445.0 986.4126738943434 475.3044682539775 989.9471770824066 475.3044682539775 989.9471770824066 C 479.4542184791517 990.2883823595562 503.7871187493473 990.9972509963371 511.3044682539775 990.9959329085 C 517.6472020389516 990.9948207771229 544.6717509233275 990.2366939151052 548.5 989.9524767574153 C 548.5 989.9524767574153 580.0 986.3821181960677 580.0 986.3821181960677 C 580.0 986.3821181960677 609.5 981.3554264089055 609.5 981.3554264089055 C 609.5 981.3554264089055 635.1617750354617 975.4392590750726 635.1617750354617 975.4392590750726 C 635.9432048999018 975.2436155438635 665.1700586041413 966.473231620201 666.1617750354617 966.1367900380411 C 666.1617750354617 966.1367900380411 694.0 956.3773830247217 694.0 956.3773830247217 C 696.2562626498897 955.5442025963412 719.0246800930515 945.2600836738125 723.0 943.2785609613154 C 723.0 943.2785609613154 752.5 927.9489850232212 752.5 927.9489850232212 C 752.5 927.9489850232212 776.0 913.4019029657308 776.0 913.4019029657308 C 776.0 913.4019029657308 796.5 899.3626367420146 796.5 899.3626367420146 C 796.5 899.3626367420146 814.5 885.6714223526355 814.5 885.6714223526355 C 814.5 885.6714223526355 841.0 862.3614676027616 841.0 862.3614676027616 C 845.2083698224161 858.4798046432935 866.155452467884 837.5912857649176 869.1188791605962 834.3212030883155 C 869.1188791605962 834.3212030883155 883.719603629336 818.0 883.719603629336 818.0 C 883.719603629336 818.0 896.6921835221267 801.0 896.6921835221267 801.0 C 896.6921835221267 801.0 914.4229672195902 776.0996151889789 914.4229672195902 776.0996151889789 C 914.4229672195902 776.0996151889789 928.9406936874706 752.5996151889789 928.9406936874706 752.5996151889789 C 928.9406936874706 752.5996151889789 941.2902974644569 729.5 941.2902974644569 729.5 C 941.2902974644569 729.5 950.5287742000266 710.5 950.5287742000266 710.5 C 950.5287742000266 710.5 961.5079538015859 682.8061767957865 961.5079538015859 682.8061767957865 C 961.5079538015859 682.8061767957865 973.3905622412251 647.8061767957865 973.3905622412251 647.8061767957865 C 973.3905622412251 647.8061767957865 980.5105968021015 621.0 980.5105968021015 621.0 C 980.5105968021015 621.0 985.9919425228737 590.5 985.9919425228737 590.5 C 985.9919425228737 590.5 989.9682576609771 559.1834073831938 989.9682576609771 559.1834073831938 C 989.9682576609771 559.1834073831938 991.6306607466702 524.6834073831938 991.6306607466702 524.6834073831938 C 991.9957799442909 511.5640793482748 991.7773571658378 495.0297498473897 991.0960933306076 484.21732660071416 C 991.0960933306076 484.21732660071416 987.9623937012583 449.9416509813867 987.9623937012583 449.9416509813867 C 987.794861329328 448.58964379063366 982.8465002728459 418.18042437354 982.5570814800896 416.72432438067256 C 981.48017666039 411.3062895483483 975.36947452043 386.47658634028477 973.6421115887179 380.5 C 973.6421115887179 380.5 965.6708687802477 354.0 965.6708687802477 354.0 C 965.6708687802477 354.0 960.1237907436252 338.2584585698849 960.1237907436252 338.2584585698849 C 960.1237907436252 338.2584585698849 951.9467798291811 318.2584585698849 951.9467798291811 318.2584585698849 C 951.9467798291811 318.2584585698849 938.7509931698087 291.0 938.7509931698087 291.0 C 936.6765711490949 287.02356524064476 922.5445348915536 262.86578071195987 919.7424174887954 258.50609274342384 C 919.7424174887954 258.50609274342384 901.2251547232165 231.00609274342384 901.2251547232165 231.00609274342384 C 901.2251547232165 231.00609274342384 889.5914766563571 215.5 889.5914766563571 215.5 C 889.5914766563571 215.5 873.3691662352516 196.5 873.3691662352516 196.5 C 873.3691662352516 196.5 850.3429120995413 171.94117932447165 850.3429120995413 171.94117932447165 C 850.3429120995413 171.94117932447165 832.480251122081 154.94117932447165 832.480251122081 154.94117932447165 C 832.480251122081 154.94117932447165 812.1144821556165 138.18625434862685 812.1144821556165 138.18625434862685 C 812.1144821556165 138.18625434862685 784.1342310335356 117.9842775296699 784.1342310335356 117.9842775296699 C 784.1342310335356 117.9842775296699 756.0 99.97571040564824 756.0 99.97571040564824 C 753.9595217288099 98.74834973350936 727.6450644256169 84.60985100157923 725.0 83.31971573169959 C 725.0 83.31971573169959 696.9343446685383 70.44286015821564 696.9343446685383 70.44286015821564 C 696.9343446685383 70.44286015821564 671.4343446685383 61.003124957254556 671.4343446685383 61.003124957254556 C 671.4343446685383 61.003124957254556 643.5 52.08040751025895 643.5 52.08040751025895 C 643.5 52.08040751025895 626.0 47.14422143478035 626.0 47.14422143478035 C 626.0 47.14422143478035 609.5 43.5783841531169 609.5 43.5783841531169 C 609.5 43.5783841531169 579.5 38.62557386582341 579.5 38.62557386582341 C 579.5 38.62557386582341 550.5 35.10769874623191 550.5 35.10769874623191 C 550.5 35.10769874623191 522.5 33.63810031827241 522.5 33.63810031827241 C 517.783594506289 33.513059173504615 494.6615342591568 33.768272151564375 490.5 33.991304799647516 Z M 493.5 51.69618571895228 C 493.5 51.69618571895228 506.5 51.20970012458928 506.5 51.20970012458928 C 506.5 51.20970012458928 532.5 52.03426279773026 532.5 52.03426279773026 C 532.5 52.03426279773026 561.5 54.03914309160409 561.5 54.03914309160409 C 561.5 54.03914309160409 586.0 57.546198461183394 586.0 57.546198461183394 C 586.0 57.546198461183394 617.4646724161107 63.61203807769341 617.4646724161107 63.61203807769341 C 622.4775328869109 64.72895118546816 645.1156293523625 70.95542172873472 650.4646724161107 72.68848707336645 C 650.4646724161107 72.68848707336645 684.562909772783 85.074750397361 684.562909772783 85.074750397361 C 684.562909772783 85.074750397361 713.0818357459556 97.32451424850689 713.0818357459556 97.32451424850689 C 713.0818357459556 97.32451424850689 742.5189259731726 112.95644206528843 742.5189259731726 112.95644206528843 C 742.5189259731726 112.95644206528843 768.5 128.5124176673773 768.5 128.5124176673773 C 768.5 128.5124176673773 794.5 147.2229649370999 794.5 147.2229649370999 C 804.4350770620578 154.62108209194193 819.2207691149518 166.91473137273437 827.5 174.66100603891914 C 829.8531774042646 176.86270312464873 853.553305994636 200.83829809772303 855.6099798913482 203.09770797521293 C 855.6099798913482 203.09770797521293 871.7161073232547 221.0 871.7161073232547 221.0 C 871.7161073232547 221.0 884.4688803679945 237.8728531631955 884.4688803679945 237.8728531631955 C 884.4688803679945 237.8728531631955 901.4454784942541 262.3728531631955 901.4454784942541 262.3728531631955 C 901.4454784942541 262.3728531631955 915.7040764441595 286.0 915.7040764441595 286.0 C 915.7040764441595 286.0 927.7489572277434 308.5 927.7489572277434 308.5 C 927.7489572277434 308.5 936.7908081835553 328.0 936.7908081835553 328.0 C 936.7908081835553 328.0 944.9595526710343 348.5 944.9595526710343 348.5 C 944.9595526710343 348.5 954.4540395133531 377.03822245898436 954.4540395133531 377.03822245898436 C 956.5042192374118 383.744852232113 962.0272584698535 405.3608252813513 963.396795534335 412.03822245898436 C 963.396795534335 412.03822245898436 968.9584929931399 443.5 968.9584929931399 443.5 C 968.9584929931399 443.5 971.9880872416334 470.5 971.9880872416334 470.5 C 971.9880872416334 470.5 973.647699329028 503.5 973.647699329028 503.5 C 974.0059469466291 515.2401049108839 973.7743706916644 530.8769001960253 973.086974882855 541.3619706822809 C 973.086974882855 541.3619706822809 970.4467109590555 570.8619706822809 970.4467109590555 570.8619706822809 C 970.4467109590555 570.8619706822809 965.3646596779431 602.5 965.3646596779431 602.5 C 963.6359304198398 612.0700010111539 958.9383781265642 632.6240491592173 956.3568883477651 641.9133272113334 C 953.0094566851166 653.9587839588964 947.4837495163473 670.0886565614366 941.7974085267213 684.4133272113334 C 938.1708069282103 693.5492326330863 927.9557963923016 716.6940292478408 924.8929186465008 722.7149010353178 C 924.8929186465008 722.7149010353178 910.8944898356498 748.2149010353178 910.8944898356498 748.2149010353178 C 910.8944898356498 748.2149010353178 899.1994187555134 766.968672946691 899.1994187555134 766.968672946691 C 899.1994187555134 766.968672946691 883.4776384086214 788.968672946691 883.4776384086214 788.968672946691 C 883.4776384086214 788.968672946691 863.2419997432743 814.0 863.2419997432743 814.0 C 863.2419997432743 814.0 840.3957633506424 838.0966141314907 840.3957633506424 838.0966141314907 C 840.3957633506424 838.0966141314907 820.4925738020155 857.0966141314907 820.4925738020155 857.0966141314907 C 820.4925738020155 857.0966141314907 805.1593067127723 870.0 805.1593067127723 870.0 C 805.1593067127723 870.0 784.4680254553097 885.5 784.4680254553097 885.5 C 784.4680254553097 885.5 761.8012925445529 900.9324115193019 761.8012925445529 900.9324115193019 C 761.8012925445529 900.9324115193019 736.9938310946792 915.4324115193019 736.9938310946792 915.4324115193019 C 736.9938310946792 915.4324115193019 704.9938310946792 931.6711934096858 704.9938310946792 931.6711934096858 C 695.0840587837718 936.2999488698321 678.4812645113858 942.9018072927693 666.6968601742637 946.8994240253262 C 660.1563264560721 949.1181655317874 633.6360063490182 957.0316602011366 628.014874340098 958.4418823162836 C 628.014874340098 958.4418823162836 596.4922917794646 965.4475729574467 596.4922917794646 965.4475729574467 C 596.4922917794646 965.4475729574467 564.6742776136302 970.1747062058392 564.6742776136302 970.1747062058392 C 549.2797696170595 972.0440284138334 541.2996740784272 972.3853264794735 512.5 972.406130621687 C 486.5961642286959 972.4248428849505 474.8091016016239 972.0148511289073 463.0 970.6843622247386 C 463.0 970.6843622247386 435.5 966.9164410965967 435.5 966.9164410965967 C 435.5 966.9164410965967 411.94886923590786 962.5156826017936 411.94886923590786 962.5156826017936 C 411.94886923590786 962.5156826017936 382.6023073137874 955.0571458488616 382.6023073137874 955.0571458488616 C 376.95453147726045 953.4450947332308 352.34242166043236 945.2087708567663 346.54735725902526 942.9915306614253 C 346.54735725902526 942.9915306614253 315.4905021277368 929.9567572540666 315.4905021277368 929.9567572540666 C 315.4905021277368 929.9567572540666 291.59658294659107 917.8135352684717 291.59658294659107 917.8135352684717 C 291.59658294659107 917.8135352684717 266.631171921699 903.2349037046093 266.631171921699 903.2349037046093 C 266.631171921699 903.2349037046093 243.59857616939257 888.3887430976553 243.59857616939257 888.3887430976553 C 243.59857616939257 888.3887430976553 222.46740424769357 872.4330522651874 222.46740424769357 872.4330522651874 C 222.46740424769357 872.4330522651874 202.01163559342046 855.1697919878884 202.01163559342046 855.1697919878884 C 202.01163559342046 855.1697919878884 182.51163559342046 836.4730283149102 182.51163559342046 836.4730283149102 C 182.51163559342046 836.4730283149102 161.64581951743082 813.9730283149102 161.64581951743082 813.9730283149102 C 161.64581951743082 813.9730283149102 140.5191985529853 787.5 140.5191985529853 787.5 C 140.5191985529853 787.5 124.27993949990935 765.0 124.27993949990935 765.0 C 124.27993949990935 765.0 114.67923651390234 749.8043762512741 114.67923651390234 749.8043762512741 C 114.67923651390234 749.8043762512741 102.14087311410793 727.3043762512741 102.14087311410793 727.3043762512741 C 102.14087311410793 727.3043762512741 90.1441505508491 702.8619660382337 90.1441505508491 702.8619660382337 C 90.1441505508491 702.8619660382337 79.05717665864327 675.1477591164255 79.05717665864327 675.1477591164255 C 76.5545106867268 668.6802298566547 69.47874797893236 647.6485654756833 68.03929086313738 642.3987134222148 C 68.03929086313738 642.3987134222148 61.463196686722995 615.634481894485 61.463196686722995 615.634481894485 C 61.463196686722995 615.634481894485 56.481469571438964 587.0215615504621 56.481469571438964 587.0215615504621 C 56.481469571438964 587.0215615504621 52.98004030622525 560.5 52.98004030622525 560.5 C 52.83293815508749 559.1285982688921 51.40094804790491 529.7913641546588 51.32045428476775 526.5 C 50.9736742926485 512.3202773590141 51.20770970951246 494.9302028690933 51.89241878224493 484.0 C 52.214148543595336 478.86413763067094 54.89226960276728 452.13586236932906 55.59974662964555 447.0 C 55.59974662964555 447.0 60.14351059748401 418.5351433572704 60.14351059748401 418.5351433572704 C 60.14351059748401 418.5351433572704 65.58171978597153 395.253453913846 65.58171978597153 395.253453913846 C 65.58171978597153 395.253453913846 73.45839818061873 368.46268458359236 73.45839818061873 368.46268458359236 C 73.45839818061873 368.46268458359236 84.6121753916041 338.2578380704118 84.6121753916041 338.2578380704118 C 84.79298514200129 337.80767011359603 98.34528884184388 307.4039685922289 98.53920481688723 307.01346404339506 C 98.53920481688723 307.01346404339506 112.46009279837213 281.0 112.46009279837213 281.0 C 112.46009279837213 281.0 127.25970159633687 257.5 127.25970159633687 257.5 C 127.25970159633687 257.5 141.36747433904924 237.5 141.36747433904924 237.5 C 141.36747433904924 237.5 156.83144338060958 218.0 156.83144338060958 218.0 C 160.48931343851038 213.54484479173658 177.9721253236339 194.9447296051479 185.37037399193403 187.63718421494954 C 192.73045559297623 180.3673379598983 211.58002619594336 163.07970074251102 216.040339697528 159.50862618272802 C 216.040339697528 159.50862618272802 239.73702415272598 141.11643818553387 239.73702415272598 141.11643818553387 C 242.84089755541626 138.77990610936482 264.0022231872996 124.6513773965202 268.1803445916344 122.12602725852273 C 268.1803445916344 122.12602725852273 294.5 106.84813894664782 294.5 106.84813894664782 C 294.5 106.84813894664782 322.5 93.2669666971682 322.5 93.2669666971682 C 325.1741508395605 92.05360802624108 355.61312613329375 79.58371981324646 358.25015971718506 78.62125372660765 C 358.25015971718506 78.62125372660765 384.75015971718506 69.6375095708577 384.75015971718506 69.6375095708577 C 384.75015971718506 69.6375095708577 405.585044154777 64.09299211089365 405.585044154777 64.09299211089365 C 408.26063310976514 63.420115018081546 432.7866369039828 58.70292480188636 437.085044154777 58.03446365852585 C 437.085044154777 58.03446365852585 471.5 53.507911520356636 471.5 53.507911520356636 C 471.5 53.507911520356636 493.5 51.69618571895228 493.5 51.69618571895228 Z"/>
<path fill="#060606" d="M 758.0 288.43690319927 C 758.0 288.43690319927 730.5 299.25114044397367 730.5 299.25114044397367 C 730.5 299.25114044397367 680.0 318.26864547299266 680.0 318.26864547299266 C 680.0 318.26864547299266 621.5 340.9721752521621 621.5 340.9721752521621 C 621.5 340.9721752521621 589.0 353.9877946018528 589.0 353.9877946018528 C 589.0 353.9877946018528 559.0 365.8304882304125 559.0 365.8304882304125 C 559.0 365.8304882304125 527.5 378.3208911256916 527.5 378.3208911256916 C 527.5 378.3208911256916 495.5 390.97303407908396 495.5 390.97303407908396 C 495.5 390.97303407908396 452.5 407.9515154442619 452.5 407.9515154442619 C 452.5 407.9515154442619 418.0 421.51533522330516 418.0 421.51533522330516 C 418.0 421.51533522330516 384.0 434.77174353597803 384.0 434.77174353597803 C 384.0 434.77174353597803 334.0 454.4878023936815 334.0 454.4878023936815 C 334.0 454.4878023936815 284.0 474.3029906704156 284.0 474.3029906704156 C 284.0 474.3029906704156 239.13626047505926 492.06872931744033 239.13626047505926 492.06872931744033 C 220.7903992016092 499.3127841172819 215.0452468434395 502.0214198232294 212.38626047505915 504.6804061916074 C 209.38472048462594 507.68194618203796 208.99999999999977 508.67242507276734 208.99999999999983 513.3984746415281 C 208.99999999999986 517.2996311694028 209.56311842643765 519.4461716888167 211.0986518576495 521.3982861147293 C 211.70549036915122 522.1697562686335 216.50368500529055 525.7275696830302 217.84865185764954 526.4033437183327 C 217.84865185764954 526.4033437183327 245.899446666258 537.4377453237098 245.899446666258 537.4377453237098 C 245.899446666258 537.4377453237098 279.399446666258 550.1626405882971 279.399446666258 550.1626405882971 C 279.399446666258 550.1626405882971 312.5 562.5563468257603 312.5 562.5563468257603 C 312.5 562.5563468257603 348.0 575.8339322583873 348.0 575.8339322583873 L 360.5 580.745359218028 L 360.66624906310966 647.8691337577861 C 360.8324064008286 714.9558737763742 360.8337009976439 714.9948545843931 363.01266051939297 718.5204851506932 C 364.8297036308818 721.4605226641057 368.0698632168982 723.483620778085 382.4665271511418 730.6671340571694 C 398.75226791910825 738.7932412998443 399.92709891398164 739.2210637407119 403.00745172930385 738.1472469662199 C 403.85361105337466 737.8522742372649 410.4224334161066 733.4853933463103 411.87207343569924 732.2541439109716 C 411.87207343569924 732.2541439109716 430.5179450698482 715.0 430.5179450698482 715.0 C 430.5179450698482 715.0 468.73773229255755 678.75 468.73773229255755 678.75 C 468.73773229255755 678.75 494.34337696652324 655.0 494.34337696652324 655.0 C 494.34337696652324 655.0 515.6388523425601 664.8594040549006 515.6388523425601 664.8594040549006 C 515.6388523425601 664.8594040549006 548.5 680.4826222794281 548.5 680.4826222794281 C 548.5 680.4826222794281 583.5 697.3257867897061 583.5 697.3257867897061 C 604.1382555074742 707.2674591021919 607.0727581806899 708.4100076055727 612.0778422253375 708.4525685651785 C 616.6158022306427 708.4911573142895 618.3036513585 708.0057715454836 621.1313253544845 705.8489994448803 C 622.7544895417318 704.6109517637385 625.4953147417253 701.146526355332 626.2736972343145 699.3489994448803 C 626.2736972343145 699.3489994448803 637.5469572480984 670.5 637.5469572480984 670.5 C 637.5469572480984 670.5 658.6912904334636 616.5 658.6912904334636 616.5 C 658.6912904334636 616.5 678.9773383046688 566.0 678.9773383046688 566.0 C 678.9773383046688 566.0 696.7870786612043 521.5 696.7870786612043 521.5 C 696.7870786612043 521.5 715.5529082111677 474.0 715.5529082111677 474.0 C 715.5529082111677 474.0 731.4874311544527 433.5 731.4874311544527 433.5 C 731.4874311544527 433.5 744.9340075212301 399.0 744.9340075212301 399.0 C 744.9340075212301 399.0 753.4804090887772 377.5 753.4804090887772 377.5 C 753.4804090887772 377.5 762.0579148155591 356.5 762.0579148155591 356.5 C 762.0579148155591 356.5 774.1582178553473 325.7278785145764 774.1582178553473 325.7278785145764 C 774.1582178553473 325.7278785145764 783.0394485842701 303.52697390933463 783.0394485842701 303.52697390933463 C 786.9285200729342 294.4243410930139 787.0168881322973 293.9761817281109 785.5941089893574 290.5709919296367 C 784.7954184825352 288.65945648194224 782.6040971405638 286.11935843006756 780.8101756027759 285.02563459531603 C 779.0233769342175 283.93625345431343 775.8892639214397 283.0466464188155 774.0 283.09259002911637 C 772.20495945479 283.13624229090334 764.4108590900355 285.7396243677069 758.0 288.43690319927 Z M 748.687020492232 325.7393478456561 C 748.687020492232 325.7393478456561 756.5911404938633 319.2578071605301 756.5911404938633 319.2578071605301 C 756.5911404938633 319.2578071605301 747.5616395474904 343.01845931487395 747.5616395474904 343.01845931487395 C 747.5616395474904 343.01845931487395 718.4762100494249 416.5 718.4762100494249 416.5 C 718.4762100494249 416.5 669.2994730658604 540.5 669.2994730658604 540.5 C 669.2994730658604 540.5 633.9723357883747 629.0 633.9723357883747 629.0 C 633.9723357883747 629.0 622.0948198637661 658.5 622.0948198637661 658.5 C 622.0948198637661 658.5 613.2485594360479 680.4412337405763 613.2485594360479 680.4412337405763 C 612.6500150240547 681.8758647338785 609.4623190142603 687.6792269952466 609.2303754279789 687.7565415240072 C 608.979214483488 687.8402618388374 586.5268180966034 678.0739442041745 580.3040766497076 675.1742132506304 C 580.3040766497076 675.1742132506304 532.0 652.4855148844226 532.0 652.4855148844226 C 532.0 652.4855148844226 478.5 626.7693141474577 478.5 626.7693141474577 C 478.5 626.7693141474577 445.0 610.2805561059305 445.0 610.2805561059305 C 444.9968790336847 610.2774048453031 452.45006453895513 602.3491961636689 452.5 602.3025492429308 C 452.5 602.3025492429308 480.0 577.1851257750623 480.0 577.1851257750623 C 480.0 577.1851257750623 510.5 548.9800472984989 510.5 548.9800472984989 C 510.5 548.9800472984989 527.0509400116701 533.4596193906716 527.0509400116701 533.4596193906716 C 527.0509400116701 533.4596193906716 555.5509400116701 507.0774354899553 555.5509400116701 507.0774354899553 C 555.5509400116701 507.0774354899553 599.9994524520165 465.5774354899553 599.9994524520165 465.5774354899553 C 599.9994524520165 465.5774354899553 632.9994524520165 434.49497141262697 632.9994524520165 434.49497141262697 C 632.9994524520165 434.49497141262697 676.4937634493838 393.49497141262697 676.4937634493838 393.49497141262697 C 676.4937634493838 393.49497141262697 724.774769429293 348.0 724.774769429293 348.0 C 724.774769429293 348.0 748.687020492232 325.7393478456561 748.687020492232 325.7393478456561 Z M 703.0 328.6186972202756 C 703.0 328.6186972202756 717.3157187667152 323.04079768722306 717.3157187667152 323.04079768722306 C 717.3157187667152 323.04079768722306 695.8157187667152 337.8797683038721 695.8157187667152 337.8797683038721 C 695.8157187667152 337.8797683038721 641.0 374.4344854908793 641.0 374.4344854908793 C 641.0 374.4344854908793 593.0 406.8812711592813 593.0 406.8812711592813 C 593.0 406.8812711592813 561.5 428.80133932970284 561.5 428.80133932970284 C 561.5 428.80133932970284 530.5 450.1605746432568 530.5 450.1605746432568 C 530.5 450.1605746432568 508.0 465.912766360664 508.0 465.912766360664 C 508.0 465.912766360664 489.0 479.3868318277734 489.0 479.3868318277734 C 489.0 479.3868318277734 462.0 497.9556308460929 462.0 497.9556308460929 C 462.0 497.9556308460929 432.5 518.4746363995389 432.5 518.4746363995389 C 432.5 518.4746363995389 401.12536019066397 540.7638866029586 401.12536019066397 540.7638866029586 C 401.12536019066397 540.7638866029586 376.42858662345543 558.5850262965753 376.42858662345543 558.5850262965753 C 376.42858662345543 558.5850262965753 368.26132093481215 564.0 368.26132093481215 564.0 C 368.26132093481215 564.0 351.4580945020207 557.9375179383753 351.4580945020207 557.9375179383753 C 351.4580945020207 557.9375179383753 304.69686213078717 540.4185388065873 304.69686213078717 540.4185388065873 C 304.69686213078717 540.4185388065873 257.69686213078717 522.5488085410348 257.69686213078717 522.5488085410348 C 257.69686213078717 522.5488085410348 238.7405515325808 515.4570082285845 238.7405515325808 515.4570082285845 C 238.7405515325808 515.4570082285845 235.48279593270604 513.9721632343737 235.48279593270604 513.9721632343737 C 235.293225245406 513.6654314190515 238.2420395509346 512.1030220756792 240.24224440012523 511.4504016094206 C 240.24224440012523 511.4504016094206 285.0 493.9974757368557 285.0 493.9974757368557 C 285.0 493.9974757368557 339.5 472.4850874960174 339.5 472.4850874960174 C 339.5 472.4850874960174 370.7988367019349 459.85507068997026 370.7988367019349 459.85507068997026 C 370.7988367019349 459.85507068997026 387.6961398062541 453.0 387.6961398062541 453.0 C 387.6961398062541 453.0 416.89730310431923 441.6151095058258 416.89730310431923 441.6151095058258 C 416.89730310431923 441.6151095058258 481.0 416.1921727037492 481.0 416.1921727037492 C 481.0 416.1921727037492 546.0 390.6717505936215 546.0 390.6717505936215 C 546.0 390.6717505936215 592.5292603488369 372.6737804300666 592.5292603488369 372.6737804300666 C 592.5292603488369 372.6737804300666 649.5292603488369 350.15699256742096 649.5292603488369 350.15699256742096 C 649.5292603488369 350.15699256742096 703.0 328.6186972202756 703.0 328.6186972202756 Z M 667.9778438811891 376.83225683181325 C 667.9778438811891 376.83225683181325 671.7278438811891 374.0 671.7278438811891 374.0 C 671.7278438811891 374.0 672.0 374.4245807734978 672.0 374.4245807734978 C 672.0 374.4245807734978 652.4228413702099 392.1745807734978 652.4228413702099 392.1745807734978 C 652.4228413702099 392.1745807734978 626.6728413702099 414.87087921787156 626.6728413702099 414.87087921787156 C 626.6728413702099 414.87087921787156 604.0 435.95469082569855 604.0 435.95469082569855 C 604.0 435.95469082569855 555.103544455341 482.083811607827 555.103544455341 482.083811607827 C 555.103544455341 482.083811607827 507.10354445534097 526.9033246406743 507.10354445534097 526.9033246406743 C 507.10354445534097 526.9033246406743 482.9452103683496 549.4033246406743 482.9452103683496 549.4033246406743 C 482.9452103683496 549.4033246406743 455.4559123801811 575.0 455.4559123801811 575.0 C 455.4559123801811 575.0 428.4756653431128 600.5 428.4756653431128 600.5 C 421.0858409566032 607.8478144691662 420.3209063200208 608.9891391481253 419.09263428316973 614.5 C 419.09263428316973 614.5 412.94055209623036 636.5 412.94055209623036 636.5 C 412.94055209623036 636.5 399.5594416233407 682.4201061876607 399.5594416233407 682.4201061876607 C 399.5594416233407 682.4201061876607 390.5606012770737 712.7727320562642 390.5606012770737 712.7727320562642 C 390.5606012770737 712.7727320562642 384.5168458952684 710.63634305402 384.5168458952684 710.63634305402 L 378.90561019438707 708.0674343708329 L 379.29012020397863 643.5822036334187 C 379.6047158775563 590.8221347311921 379.9241694754173 578.7962964797023 381.04702891513523 577.4433336238924 C 381.04702891513523 577.4433336238924 388.4597138083501 571.7221162090931 388.4597138083501 571.7221162090931 C 388.4597138083501 571.7221162090931 404.5 560.4911521367064 404.5 560.4911521367064 C 404.5 560.4911521367064 429.5 543.0362443342347 429.5 543.0362443342347 C 429.5 543.0362443342347 454.0 525.8225302901926 454.0 525.8225302901926 C 454.0 525.8225302901926 479.0 508.13074467423627 479.0 508.13074467423627 C 479.0 508.13074467423627 507.0 488.37402156886617 507.0 488.37402156886617 C 507.0 488.37402156886617 528.5 473.5245020914981 528.5 473.5245020914981 C 528.5 473.5245020914981 546.9371135219924 460.6942763127016 546.9371135219924 460.6942763127016 C 546.9371135219924 460.6942763127016 565.9371135219924 447.5217973126189 565.9371135219924 447.5217973126189 C 565.9371135219924 447.5217973126189 591.6078723660055 429.90857713732396 591.6078723660055 429.90857713732396 C 591.6078723660055 429.90857713732396 622.1078723660055 408.583501504581 622.1078723660055 408.583501504581 C 622.1078723660055 408.583501504581 650.5 389.1657583363942 650.5 389.1657583363942 C 650.5 389.1657583363942 667.9778438811891 376.83225683181325 667.9778438811891 376.83225683181325 Z M 430.15462857139073 644.25 C 431.6099346520508 639.2776010328815 436.1080635052697 626.0 436.3372854661076 626.0 C 436.3372854661076 626.0 446.8392948984326 631.0147387278138 446.8392948984326 631.0147387278138 C 446.8392948984326 631.0147387278138 466.25 640.4464783615822 466.25 640.4464783615822 C 471.453122460268 642.803626732946 475.9949806446021 645.4782452624843 475.9892368521689 646.1817396337684 C 475.98621798934346 646.5514871533941 471.12946747283337 651.7181794378752 469.2392368521689 653.3625023271973 C 469.2392368521689 653.3625023271973 445.0763136786776 675.8625023271973 445.0763136786776 675.8625023271973 C 445.0763136786776 675.8625023271973 420.18978797660964 699.280140964599 420.18978797660964 699.280140964599 C 420.18978797660964 699.280140964599 412.2683820975292 705.6017154308624 412.2683820975292 705.6017154308624 C 412.2683820975292 705.6017154308624 414.47976745849724 695.8215744662633 414.47976745849724 695.8215744662633 C 414.47976745849724 695.8215744662633 420.9814976626159 674.5 420.9814976626159 674.5 C 420.9814976626159 674.5 430.15462857139073 644.25 430.15462857139073 644.25 Z"/>
</svg>
